M48
METRIC,TZ
T1C0.400
T2C1.000
T3C1.100
T4C3.000
%
G90
G05
T1
X62128Y-67373
X73203Y-80188
X73939Y-65011
X75260Y-67602
X82906Y-86893
X91084Y-84887
X95313Y-56325
X96393Y-78130
X97549Y-79438
X98273Y-62636
X102387Y-83668
X105219Y-82029
X108826Y-75362
X112928Y-72047
X121298Y-65176
X121768Y-80289
X125984Y-75679
T2
X59690Y-54521
X62230Y-54521
X75463Y-86893
X78003Y-86893
X122936Y-54521
X125476Y-54521
X107175Y-86893
X109715Y-86893
T3
X84963Y-56985
X84963Y-59525
X84963Y-62065
X84963Y-64605
X84963Y-67145
X84963Y-69685
X84963Y-72225
X84963Y-74765
X84963Y-77305
X84963Y-79845
X84963Y-82385
X84963Y-84925
X100203Y-56985
X100203Y-59525
X100203Y-62065
X100203Y-64605
X100203Y-67145
X100203Y-69685
X100203Y-72225
X100203Y-74765
X100203Y-77305
X100203Y-79845
X100203Y-82385
X100203Y-84925
T4
X56591Y-128943
X77305Y-55740
X77165Y-98882
X56731Y-85801
X128295Y-128956
X107861Y-55740
X107721Y-98882
X128435Y-85814
T0
M30
