G04 #@! TF.GenerationSoftware,KiCad,Pcbnew,5.0.2+dfsg1-1~bpo9+1*
G04 #@! TF.CreationDate,2019-06-02T18:57:07+01:00*
G04 #@! TF.ProjectId,ds_button_gamepad,64735f62-7574-4746-9f6e-5f67616d6570,rev?*
G04 #@! TF.SameCoordinates,Original*
G04 #@! TF.FileFunction,Soldermask,Top*
G04 #@! TF.FilePolarity,Negative*
%FSLAX46Y46*%
G04 Gerber Fmt 4.6, Leading zero omitted, Abs format (unit mm)*
G04 Created by KiCad (PCBNEW 5.0.2+dfsg1-1~bpo9+1) date Sun 02 Jun 2019 18:57:07 BST*
%MOMM*%
%LPD*%
G01*
G04 APERTURE LIST*
%ADD10C,0.100000*%
G04 APERTURE END LIST*
D10*
G36*
X128820731Y-127224011D02*
X129148492Y-127359774D01*
X129443473Y-127556874D01*
X129694326Y-127807727D01*
X129891426Y-128102708D01*
X130027189Y-128430469D01*
X130096400Y-128778416D01*
X130096400Y-129133184D01*
X130027189Y-129481131D01*
X129891426Y-129808892D01*
X129694326Y-130103873D01*
X129443473Y-130354726D01*
X129148492Y-130551826D01*
X128820731Y-130687589D01*
X128472784Y-130756800D01*
X128118016Y-130756800D01*
X127770069Y-130687589D01*
X127442308Y-130551826D01*
X127147327Y-130354726D01*
X126896474Y-130103873D01*
X126699374Y-129808892D01*
X126563611Y-129481131D01*
X126494400Y-129133184D01*
X126494400Y-128778416D01*
X126563611Y-128430469D01*
X126699374Y-128102708D01*
X126896474Y-127807727D01*
X127147327Y-127556874D01*
X127442308Y-127359774D01*
X127770069Y-127224011D01*
X128118016Y-127154800D01*
X128472784Y-127154800D01*
X128820731Y-127224011D01*
X128820731Y-127224011D01*
G37*
G36*
X57116531Y-127211311D02*
X57444292Y-127347074D01*
X57739273Y-127544174D01*
X57990126Y-127795027D01*
X58187226Y-128090008D01*
X58322989Y-128417769D01*
X58392200Y-128765716D01*
X58392200Y-129120484D01*
X58322989Y-129468431D01*
X58187226Y-129796192D01*
X57990126Y-130091173D01*
X57739273Y-130342026D01*
X57444292Y-130539126D01*
X57116531Y-130674889D01*
X56768584Y-130744100D01*
X56413816Y-130744100D01*
X56065869Y-130674889D01*
X55738108Y-130539126D01*
X55443127Y-130342026D01*
X55192274Y-130091173D01*
X54995174Y-129796192D01*
X54859411Y-129468431D01*
X54790200Y-129120484D01*
X54790200Y-128765716D01*
X54859411Y-128417769D01*
X54995174Y-128090008D01*
X55192274Y-127795027D01*
X55443127Y-127544174D01*
X55738108Y-127347074D01*
X56065869Y-127211311D01*
X56413816Y-127142100D01*
X56768584Y-127142100D01*
X57116531Y-127211311D01*
X57116531Y-127211311D01*
G37*
G36*
X77690531Y-97150411D02*
X78018292Y-97286174D01*
X78313273Y-97483274D01*
X78564126Y-97734127D01*
X78761226Y-98029108D01*
X78896989Y-98356869D01*
X78966200Y-98704816D01*
X78966200Y-99059584D01*
X78896989Y-99407531D01*
X78761226Y-99735292D01*
X78564126Y-100030273D01*
X78313273Y-100281126D01*
X78018292Y-100478226D01*
X77690531Y-100613989D01*
X77342584Y-100683200D01*
X76987816Y-100683200D01*
X76639869Y-100613989D01*
X76312108Y-100478226D01*
X76017127Y-100281126D01*
X75766274Y-100030273D01*
X75569174Y-99735292D01*
X75433411Y-99407531D01*
X75364200Y-99059584D01*
X75364200Y-98704816D01*
X75433411Y-98356869D01*
X75569174Y-98029108D01*
X75766274Y-97734127D01*
X76017127Y-97483274D01*
X76312108Y-97286174D01*
X76639869Y-97150411D01*
X76987816Y-97081200D01*
X77342584Y-97081200D01*
X77690531Y-97150411D01*
X77690531Y-97150411D01*
G37*
G36*
X108246731Y-97150411D02*
X108574492Y-97286174D01*
X108869473Y-97483274D01*
X109120326Y-97734127D01*
X109317426Y-98029108D01*
X109453189Y-98356869D01*
X109522400Y-98704816D01*
X109522400Y-99059584D01*
X109453189Y-99407531D01*
X109317426Y-99735292D01*
X109120326Y-100030273D01*
X108869473Y-100281126D01*
X108574492Y-100478226D01*
X108246731Y-100613989D01*
X107898784Y-100683200D01*
X107544016Y-100683200D01*
X107196069Y-100613989D01*
X106868308Y-100478226D01*
X106573327Y-100281126D01*
X106322474Y-100030273D01*
X106125374Y-99735292D01*
X105989611Y-99407531D01*
X105920400Y-99059584D01*
X105920400Y-98704816D01*
X105989611Y-98356869D01*
X106125374Y-98029108D01*
X106322474Y-97734127D01*
X106573327Y-97483274D01*
X106868308Y-97286174D01*
X107196069Y-97150411D01*
X107544016Y-97081200D01*
X107898784Y-97081200D01*
X108246731Y-97150411D01*
X108246731Y-97150411D01*
G37*
G36*
X107423528Y-86075103D02*
X107578400Y-86139253D01*
X107717781Y-86232385D01*
X107836315Y-86350919D01*
X107929447Y-86490300D01*
X107993597Y-86645172D01*
X108026300Y-86809584D01*
X108026300Y-86977216D01*
X107993597Y-87141628D01*
X107929447Y-87296500D01*
X107836315Y-87435881D01*
X107717781Y-87554415D01*
X107578400Y-87647547D01*
X107423528Y-87711697D01*
X107259116Y-87744400D01*
X107091484Y-87744400D01*
X106927072Y-87711697D01*
X106772200Y-87647547D01*
X106632819Y-87554415D01*
X106514285Y-87435881D01*
X106421153Y-87296500D01*
X106357003Y-87141628D01*
X106324300Y-86977216D01*
X106324300Y-86809584D01*
X106357003Y-86645172D01*
X106421153Y-86490300D01*
X106514285Y-86350919D01*
X106632819Y-86232385D01*
X106772200Y-86139253D01*
X106927072Y-86075103D01*
X107091484Y-86042400D01*
X107259116Y-86042400D01*
X107423528Y-86075103D01*
X107423528Y-86075103D01*
G37*
G36*
X109963528Y-86075103D02*
X110118400Y-86139253D01*
X110257781Y-86232385D01*
X110376315Y-86350919D01*
X110469447Y-86490300D01*
X110533597Y-86645172D01*
X110566300Y-86809584D01*
X110566300Y-86977216D01*
X110533597Y-87141628D01*
X110469447Y-87296500D01*
X110376315Y-87435881D01*
X110257781Y-87554415D01*
X110118400Y-87647547D01*
X109963528Y-87711697D01*
X109799116Y-87744400D01*
X109631484Y-87744400D01*
X109467072Y-87711697D01*
X109312200Y-87647547D01*
X109172819Y-87554415D01*
X109054285Y-87435881D01*
X108961153Y-87296500D01*
X108897003Y-87141628D01*
X108864300Y-86977216D01*
X108864300Y-86809584D01*
X108897003Y-86645172D01*
X108961153Y-86490300D01*
X109054285Y-86350919D01*
X109172819Y-86232385D01*
X109312200Y-86139253D01*
X109467072Y-86075103D01*
X109631484Y-86042400D01*
X109799116Y-86042400D01*
X109963528Y-86075103D01*
X109963528Y-86075103D01*
G37*
G36*
X78251628Y-86075103D02*
X78406500Y-86139253D01*
X78545881Y-86232385D01*
X78664415Y-86350919D01*
X78757547Y-86490300D01*
X78821697Y-86645172D01*
X78854400Y-86809584D01*
X78854400Y-86977216D01*
X78821697Y-87141628D01*
X78757547Y-87296500D01*
X78664415Y-87435881D01*
X78545881Y-87554415D01*
X78406500Y-87647547D01*
X78251628Y-87711697D01*
X78087216Y-87744400D01*
X77919584Y-87744400D01*
X77755172Y-87711697D01*
X77600300Y-87647547D01*
X77460919Y-87554415D01*
X77342385Y-87435881D01*
X77249253Y-87296500D01*
X77185103Y-87141628D01*
X77152400Y-86977216D01*
X77152400Y-86809584D01*
X77185103Y-86645172D01*
X77249253Y-86490300D01*
X77342385Y-86350919D01*
X77460919Y-86232385D01*
X77600300Y-86139253D01*
X77755172Y-86075103D01*
X77919584Y-86042400D01*
X78087216Y-86042400D01*
X78251628Y-86075103D01*
X78251628Y-86075103D01*
G37*
G36*
X75711628Y-86075103D02*
X75866500Y-86139253D01*
X76005881Y-86232385D01*
X76124415Y-86350919D01*
X76217547Y-86490300D01*
X76281697Y-86645172D01*
X76314400Y-86809584D01*
X76314400Y-86977216D01*
X76281697Y-87141628D01*
X76217547Y-87296500D01*
X76124415Y-87435881D01*
X76005881Y-87554415D01*
X75866500Y-87647547D01*
X75711628Y-87711697D01*
X75547216Y-87744400D01*
X75379584Y-87744400D01*
X75215172Y-87711697D01*
X75060300Y-87647547D01*
X74920919Y-87554415D01*
X74802385Y-87435881D01*
X74709253Y-87296500D01*
X74645103Y-87141628D01*
X74612400Y-86977216D01*
X74612400Y-86809584D01*
X74645103Y-86645172D01*
X74709253Y-86490300D01*
X74802385Y-86350919D01*
X74920919Y-86232385D01*
X75060300Y-86139253D01*
X75215172Y-86075103D01*
X75379584Y-86042400D01*
X75547216Y-86042400D01*
X75711628Y-86075103D01*
X75711628Y-86075103D01*
G37*
G36*
X128960431Y-84082111D02*
X129288192Y-84217874D01*
X129583173Y-84414974D01*
X129834026Y-84665827D01*
X130031126Y-84960808D01*
X130166889Y-85288569D01*
X130236100Y-85636516D01*
X130236100Y-85991284D01*
X130166889Y-86339231D01*
X130031126Y-86666992D01*
X129834026Y-86961973D01*
X129583173Y-87212826D01*
X129288192Y-87409926D01*
X128960431Y-87545689D01*
X128612484Y-87614900D01*
X128257716Y-87614900D01*
X127909769Y-87545689D01*
X127582008Y-87409926D01*
X127287027Y-87212826D01*
X127036174Y-86961973D01*
X126839074Y-86666992D01*
X126703311Y-86339231D01*
X126634100Y-85991284D01*
X126634100Y-85636516D01*
X126703311Y-85288569D01*
X126839074Y-84960808D01*
X127036174Y-84665827D01*
X127287027Y-84414974D01*
X127582008Y-84217874D01*
X127909769Y-84082111D01*
X128257716Y-84012900D01*
X128612484Y-84012900D01*
X128960431Y-84082111D01*
X128960431Y-84082111D01*
G37*
G36*
X57256231Y-84069411D02*
X57583992Y-84205174D01*
X57878973Y-84402274D01*
X58129826Y-84653127D01*
X58326926Y-84948108D01*
X58462689Y-85275869D01*
X58531900Y-85623816D01*
X58531900Y-85978584D01*
X58462689Y-86326531D01*
X58326926Y-86654292D01*
X58129826Y-86949273D01*
X57878973Y-87200126D01*
X57583992Y-87397226D01*
X57256231Y-87532989D01*
X56908284Y-87602200D01*
X56553516Y-87602200D01*
X56205569Y-87532989D01*
X55877808Y-87397226D01*
X55582827Y-87200126D01*
X55331974Y-86949273D01*
X55134874Y-86654292D01*
X54999111Y-86326531D01*
X54929900Y-85978584D01*
X54929900Y-85623816D01*
X54999111Y-85275869D01*
X55134874Y-84948108D01*
X55331974Y-84653127D01*
X55582827Y-84402274D01*
X55877808Y-84205174D01*
X56205569Y-84069411D01*
X56553516Y-84000200D01*
X56908284Y-84000200D01*
X57256231Y-84069411D01*
X57256231Y-84069411D01*
G37*
G36*
X85211228Y-84106603D02*
X85366100Y-84170753D01*
X85505481Y-84263885D01*
X85624015Y-84382419D01*
X85717147Y-84521800D01*
X85781297Y-84676672D01*
X85814000Y-84841084D01*
X85814000Y-85008716D01*
X85781297Y-85173128D01*
X85717147Y-85328000D01*
X85624015Y-85467381D01*
X85505481Y-85585915D01*
X85366100Y-85679047D01*
X85211228Y-85743197D01*
X85046816Y-85775900D01*
X84879184Y-85775900D01*
X84714772Y-85743197D01*
X84559900Y-85679047D01*
X84420519Y-85585915D01*
X84301985Y-85467381D01*
X84208853Y-85328000D01*
X84144703Y-85173128D01*
X84112000Y-85008716D01*
X84112000Y-84841084D01*
X84144703Y-84676672D01*
X84208853Y-84521800D01*
X84301985Y-84382419D01*
X84420519Y-84263885D01*
X84559900Y-84170753D01*
X84714772Y-84106603D01*
X84879184Y-84073900D01*
X85046816Y-84073900D01*
X85211228Y-84106603D01*
X85211228Y-84106603D01*
G37*
G36*
X100451228Y-84106603D02*
X100606100Y-84170753D01*
X100745481Y-84263885D01*
X100864015Y-84382419D01*
X100957147Y-84521800D01*
X101021297Y-84676672D01*
X101054000Y-84841084D01*
X101054000Y-85008716D01*
X101021297Y-85173128D01*
X100957147Y-85328000D01*
X100864015Y-85467381D01*
X100745481Y-85585915D01*
X100606100Y-85679047D01*
X100451228Y-85743197D01*
X100286816Y-85775900D01*
X100119184Y-85775900D01*
X99954772Y-85743197D01*
X99799900Y-85679047D01*
X99660519Y-85585915D01*
X99541985Y-85467381D01*
X99448853Y-85328000D01*
X99384703Y-85173128D01*
X99352000Y-85008716D01*
X99352000Y-84841084D01*
X99384703Y-84676672D01*
X99448853Y-84521800D01*
X99541985Y-84382419D01*
X99660519Y-84263885D01*
X99799900Y-84170753D01*
X99954772Y-84106603D01*
X100119184Y-84073900D01*
X100286816Y-84073900D01*
X100451228Y-84106603D01*
X100451228Y-84106603D01*
G37*
G36*
X100451228Y-81566603D02*
X100606100Y-81630753D01*
X100745481Y-81723885D01*
X100864015Y-81842419D01*
X100957147Y-81981800D01*
X101021297Y-82136672D01*
X101054000Y-82301084D01*
X101054000Y-82468716D01*
X101021297Y-82633128D01*
X100957147Y-82788000D01*
X100864015Y-82927381D01*
X100745481Y-83045915D01*
X100606100Y-83139047D01*
X100451228Y-83203197D01*
X100286816Y-83235900D01*
X100119184Y-83235900D01*
X99954772Y-83203197D01*
X99799900Y-83139047D01*
X99660519Y-83045915D01*
X99541985Y-82927381D01*
X99448853Y-82788000D01*
X99384703Y-82633128D01*
X99352000Y-82468716D01*
X99352000Y-82301084D01*
X99384703Y-82136672D01*
X99448853Y-81981800D01*
X99541985Y-81842419D01*
X99660519Y-81723885D01*
X99799900Y-81630753D01*
X99954772Y-81566603D01*
X100119184Y-81533900D01*
X100286816Y-81533900D01*
X100451228Y-81566603D01*
X100451228Y-81566603D01*
G37*
G36*
X85211228Y-81566603D02*
X85366100Y-81630753D01*
X85505481Y-81723885D01*
X85624015Y-81842419D01*
X85717147Y-81981800D01*
X85781297Y-82136672D01*
X85814000Y-82301084D01*
X85814000Y-82468716D01*
X85781297Y-82633128D01*
X85717147Y-82788000D01*
X85624015Y-82927381D01*
X85505481Y-83045915D01*
X85366100Y-83139047D01*
X85211228Y-83203197D01*
X85046816Y-83235900D01*
X84879184Y-83235900D01*
X84714772Y-83203197D01*
X84559900Y-83139047D01*
X84420519Y-83045915D01*
X84301985Y-82927381D01*
X84208853Y-82788000D01*
X84144703Y-82633128D01*
X84112000Y-82468716D01*
X84112000Y-82301084D01*
X84144703Y-82136672D01*
X84208853Y-81981800D01*
X84301985Y-81842419D01*
X84420519Y-81723885D01*
X84559900Y-81630753D01*
X84714772Y-81566603D01*
X84879184Y-81533900D01*
X85046816Y-81533900D01*
X85211228Y-81566603D01*
X85211228Y-81566603D01*
G37*
G36*
X115495891Y-76543791D02*
X115606091Y-76577220D01*
X115707637Y-76631497D01*
X115796651Y-76704549D01*
X115869703Y-76793563D01*
X115923980Y-76895109D01*
X115957409Y-77005309D01*
X115969300Y-77126040D01*
X115969300Y-81039760D01*
X115957409Y-81160491D01*
X115923980Y-81270691D01*
X115869703Y-81372237D01*
X115796651Y-81461251D01*
X115707637Y-81534303D01*
X115606091Y-81588580D01*
X115495891Y-81622009D01*
X115375160Y-81633900D01*
X113961440Y-81633900D01*
X113840709Y-81622009D01*
X113730509Y-81588580D01*
X113628963Y-81534303D01*
X113539949Y-81461251D01*
X113466897Y-81372237D01*
X113412620Y-81270691D01*
X113379191Y-81160491D01*
X113367300Y-81039760D01*
X113367300Y-77126040D01*
X113379191Y-77005309D01*
X113412620Y-76895109D01*
X113466897Y-76793563D01*
X113539949Y-76704549D01*
X113628963Y-76631497D01*
X113730509Y-76577220D01*
X113840709Y-76543791D01*
X113961440Y-76531900D01*
X115375160Y-76531900D01*
X115495891Y-76543791D01*
X115495891Y-76543791D01*
G37*
G36*
X118797891Y-76543791D02*
X118908091Y-76577220D01*
X119009637Y-76631497D01*
X119098651Y-76704549D01*
X119171703Y-76793563D01*
X119225980Y-76895109D01*
X119259409Y-77005309D01*
X119271300Y-77126040D01*
X119271300Y-81039760D01*
X119259409Y-81160491D01*
X119225980Y-81270691D01*
X119171703Y-81372237D01*
X119098651Y-81461251D01*
X119009637Y-81534303D01*
X118908091Y-81588580D01*
X118797891Y-81622009D01*
X118677160Y-81633900D01*
X117263440Y-81633900D01*
X117142709Y-81622009D01*
X117032509Y-81588580D01*
X116930963Y-81534303D01*
X116841949Y-81461251D01*
X116768897Y-81372237D01*
X116714620Y-81270691D01*
X116681191Y-81160491D01*
X116669300Y-81039760D01*
X116669300Y-77126040D01*
X116681191Y-77005309D01*
X116714620Y-76895109D01*
X116768897Y-76793563D01*
X116841949Y-76704549D01*
X116930963Y-76631497D01*
X117032509Y-76577220D01*
X117142709Y-76543791D01*
X117263440Y-76531900D01*
X118677160Y-76531900D01*
X118797891Y-76543791D01*
X118797891Y-76543791D01*
G37*
G36*
X71553891Y-75654791D02*
X71664091Y-75688220D01*
X71765637Y-75742497D01*
X71854651Y-75815549D01*
X71927703Y-75904563D01*
X71981980Y-76006109D01*
X72015409Y-76116309D01*
X72027300Y-76237040D01*
X72027300Y-80150760D01*
X72015409Y-80271491D01*
X71981980Y-80381691D01*
X71927703Y-80483237D01*
X71854651Y-80572251D01*
X71765637Y-80645303D01*
X71664091Y-80699580D01*
X71553891Y-80733009D01*
X71433160Y-80744900D01*
X70019440Y-80744900D01*
X69898709Y-80733009D01*
X69788509Y-80699580D01*
X69686963Y-80645303D01*
X69597949Y-80572251D01*
X69524897Y-80483237D01*
X69470620Y-80381691D01*
X69437191Y-80271491D01*
X69425300Y-80150760D01*
X69425300Y-76237040D01*
X69437191Y-76116309D01*
X69470620Y-76006109D01*
X69524897Y-75904563D01*
X69597949Y-75815549D01*
X69686963Y-75742497D01*
X69788509Y-75688220D01*
X69898709Y-75654791D01*
X70019440Y-75642900D01*
X71433160Y-75642900D01*
X71553891Y-75654791D01*
X71553891Y-75654791D01*
G37*
G36*
X68251891Y-75654791D02*
X68362091Y-75688220D01*
X68463637Y-75742497D01*
X68552651Y-75815549D01*
X68625703Y-75904563D01*
X68679980Y-76006109D01*
X68713409Y-76116309D01*
X68725300Y-76237040D01*
X68725300Y-80150760D01*
X68713409Y-80271491D01*
X68679980Y-80381691D01*
X68625703Y-80483237D01*
X68552651Y-80572251D01*
X68463637Y-80645303D01*
X68362091Y-80699580D01*
X68251891Y-80733009D01*
X68131160Y-80744900D01*
X66717440Y-80744900D01*
X66596709Y-80733009D01*
X66486509Y-80699580D01*
X66384963Y-80645303D01*
X66295949Y-80572251D01*
X66222897Y-80483237D01*
X66168620Y-80381691D01*
X66135191Y-80271491D01*
X66123300Y-80150760D01*
X66123300Y-76237040D01*
X66135191Y-76116309D01*
X66168620Y-76006109D01*
X66222897Y-75904563D01*
X66295949Y-75815549D01*
X66384963Y-75742497D01*
X66486509Y-75688220D01*
X66596709Y-75654791D01*
X66717440Y-75642900D01*
X68131160Y-75642900D01*
X68251891Y-75654791D01*
X68251891Y-75654791D01*
G37*
G36*
X100451228Y-79026603D02*
X100606100Y-79090753D01*
X100745481Y-79183885D01*
X100864015Y-79302419D01*
X100957147Y-79441800D01*
X101021297Y-79596672D01*
X101054000Y-79761084D01*
X101054000Y-79928716D01*
X101021297Y-80093128D01*
X100957147Y-80248000D01*
X100864015Y-80387381D01*
X100745481Y-80505915D01*
X100606100Y-80599047D01*
X100451228Y-80663197D01*
X100286816Y-80695900D01*
X100119184Y-80695900D01*
X99954772Y-80663197D01*
X99799900Y-80599047D01*
X99660519Y-80505915D01*
X99541985Y-80387381D01*
X99448853Y-80248000D01*
X99384703Y-80093128D01*
X99352000Y-79928716D01*
X99352000Y-79761084D01*
X99384703Y-79596672D01*
X99448853Y-79441800D01*
X99541985Y-79302419D01*
X99660519Y-79183885D01*
X99799900Y-79090753D01*
X99954772Y-79026603D01*
X100119184Y-78993900D01*
X100286816Y-78993900D01*
X100451228Y-79026603D01*
X100451228Y-79026603D01*
G37*
G36*
X85211228Y-79026603D02*
X85366100Y-79090753D01*
X85505481Y-79183885D01*
X85624015Y-79302419D01*
X85717147Y-79441800D01*
X85781297Y-79596672D01*
X85814000Y-79761084D01*
X85814000Y-79928716D01*
X85781297Y-80093128D01*
X85717147Y-80248000D01*
X85624015Y-80387381D01*
X85505481Y-80505915D01*
X85366100Y-80599047D01*
X85211228Y-80663197D01*
X85046816Y-80695900D01*
X84879184Y-80695900D01*
X84714772Y-80663197D01*
X84559900Y-80599047D01*
X84420519Y-80505915D01*
X84301985Y-80387381D01*
X84208853Y-80248000D01*
X84144703Y-80093128D01*
X84112000Y-79928716D01*
X84112000Y-79761084D01*
X84144703Y-79596672D01*
X84208853Y-79441800D01*
X84301985Y-79302419D01*
X84420519Y-79183885D01*
X84559900Y-79090753D01*
X84714772Y-79026603D01*
X84879184Y-78993900D01*
X85046816Y-78993900D01*
X85211228Y-79026603D01*
X85211228Y-79026603D01*
G37*
G36*
X100451228Y-76486603D02*
X100606100Y-76550753D01*
X100745481Y-76643885D01*
X100864015Y-76762419D01*
X100957147Y-76901800D01*
X101021297Y-77056672D01*
X101054000Y-77221084D01*
X101054000Y-77388716D01*
X101021297Y-77553128D01*
X100957147Y-77708000D01*
X100864015Y-77847381D01*
X100745481Y-77965915D01*
X100606100Y-78059047D01*
X100451228Y-78123197D01*
X100286816Y-78155900D01*
X100119184Y-78155900D01*
X99954772Y-78123197D01*
X99799900Y-78059047D01*
X99660519Y-77965915D01*
X99541985Y-77847381D01*
X99448853Y-77708000D01*
X99384703Y-77553128D01*
X99352000Y-77388716D01*
X99352000Y-77221084D01*
X99384703Y-77056672D01*
X99448853Y-76901800D01*
X99541985Y-76762419D01*
X99660519Y-76643885D01*
X99799900Y-76550753D01*
X99954772Y-76486603D01*
X100119184Y-76453900D01*
X100286816Y-76453900D01*
X100451228Y-76486603D01*
X100451228Y-76486603D01*
G37*
G36*
X85211228Y-76486603D02*
X85366100Y-76550753D01*
X85505481Y-76643885D01*
X85624015Y-76762419D01*
X85717147Y-76901800D01*
X85781297Y-77056672D01*
X85814000Y-77221084D01*
X85814000Y-77388716D01*
X85781297Y-77553128D01*
X85717147Y-77708000D01*
X85624015Y-77847381D01*
X85505481Y-77965915D01*
X85366100Y-78059047D01*
X85211228Y-78123197D01*
X85046816Y-78155900D01*
X84879184Y-78155900D01*
X84714772Y-78123197D01*
X84559900Y-78059047D01*
X84420519Y-77965915D01*
X84301985Y-77847381D01*
X84208853Y-77708000D01*
X84144703Y-77553128D01*
X84112000Y-77388716D01*
X84112000Y-77221084D01*
X84144703Y-77056672D01*
X84208853Y-76901800D01*
X84301985Y-76762419D01*
X84420519Y-76643885D01*
X84559900Y-76550753D01*
X84714772Y-76486603D01*
X84879184Y-76453900D01*
X85046816Y-76453900D01*
X85211228Y-76486603D01*
X85211228Y-76486603D01*
G37*
G36*
X100451228Y-73946603D02*
X100606100Y-74010753D01*
X100745481Y-74103885D01*
X100864015Y-74222419D01*
X100957147Y-74361800D01*
X101021297Y-74516672D01*
X101054000Y-74681084D01*
X101054000Y-74848716D01*
X101021297Y-75013128D01*
X100957147Y-75168000D01*
X100864015Y-75307381D01*
X100745481Y-75425915D01*
X100606100Y-75519047D01*
X100451228Y-75583197D01*
X100286816Y-75615900D01*
X100119184Y-75615900D01*
X99954772Y-75583197D01*
X99799900Y-75519047D01*
X99660519Y-75425915D01*
X99541985Y-75307381D01*
X99448853Y-75168000D01*
X99384703Y-75013128D01*
X99352000Y-74848716D01*
X99352000Y-74681084D01*
X99384703Y-74516672D01*
X99448853Y-74361800D01*
X99541985Y-74222419D01*
X99660519Y-74103885D01*
X99799900Y-74010753D01*
X99954772Y-73946603D01*
X100119184Y-73913900D01*
X100286816Y-73913900D01*
X100451228Y-73946603D01*
X100451228Y-73946603D01*
G37*
G36*
X85211228Y-73946603D02*
X85366100Y-74010753D01*
X85505481Y-74103885D01*
X85624015Y-74222419D01*
X85717147Y-74361800D01*
X85781297Y-74516672D01*
X85814000Y-74681084D01*
X85814000Y-74848716D01*
X85781297Y-75013128D01*
X85717147Y-75168000D01*
X85624015Y-75307381D01*
X85505481Y-75425915D01*
X85366100Y-75519047D01*
X85211228Y-75583197D01*
X85046816Y-75615900D01*
X84879184Y-75615900D01*
X84714772Y-75583197D01*
X84559900Y-75519047D01*
X84420519Y-75425915D01*
X84301985Y-75307381D01*
X84208853Y-75168000D01*
X84144703Y-75013128D01*
X84112000Y-74848716D01*
X84112000Y-74681084D01*
X84144703Y-74516672D01*
X84208853Y-74361800D01*
X84301985Y-74222419D01*
X84420519Y-74103885D01*
X84559900Y-74010753D01*
X84714772Y-73946603D01*
X84879184Y-73913900D01*
X85046816Y-73913900D01*
X85211228Y-73946603D01*
X85211228Y-73946603D01*
G37*
G36*
X64548891Y-71964491D02*
X64659091Y-71997920D01*
X64760637Y-72052197D01*
X64849651Y-72125249D01*
X64922703Y-72214263D01*
X64976980Y-72315809D01*
X65010409Y-72426009D01*
X65022300Y-72546740D01*
X65022300Y-73960460D01*
X65010409Y-74081191D01*
X64976980Y-74191391D01*
X64922703Y-74292937D01*
X64849651Y-74381951D01*
X64760637Y-74455003D01*
X64659091Y-74509280D01*
X64548891Y-74542709D01*
X64428160Y-74554600D01*
X60514440Y-74554600D01*
X60393709Y-74542709D01*
X60283509Y-74509280D01*
X60181963Y-74455003D01*
X60092949Y-74381951D01*
X60019897Y-74292937D01*
X59965620Y-74191391D01*
X59932191Y-74081191D01*
X59920300Y-73960460D01*
X59920300Y-72546740D01*
X59932191Y-72426009D01*
X59965620Y-72315809D01*
X60019897Y-72214263D01*
X60092949Y-72125249D01*
X60181963Y-72052197D01*
X60283509Y-71997920D01*
X60393709Y-71964491D01*
X60514440Y-71952600D01*
X64428160Y-71952600D01*
X64548891Y-71964491D01*
X64548891Y-71964491D01*
G37*
G36*
X77782291Y-71964491D02*
X77892491Y-71997920D01*
X77994037Y-72052197D01*
X78083051Y-72125249D01*
X78156103Y-72214263D01*
X78210380Y-72315809D01*
X78243809Y-72426009D01*
X78255700Y-72546740D01*
X78255700Y-73960460D01*
X78243809Y-74081191D01*
X78210380Y-74191391D01*
X78156103Y-74292937D01*
X78083051Y-74381951D01*
X77994037Y-74455003D01*
X77892491Y-74509280D01*
X77782291Y-74542709D01*
X77661560Y-74554600D01*
X73747840Y-74554600D01*
X73627109Y-74542709D01*
X73516909Y-74509280D01*
X73415363Y-74455003D01*
X73326349Y-74381951D01*
X73253297Y-74292937D01*
X73199020Y-74191391D01*
X73165591Y-74081191D01*
X73153700Y-73960460D01*
X73153700Y-72546740D01*
X73165591Y-72426009D01*
X73199020Y-72315809D01*
X73253297Y-72214263D01*
X73326349Y-72125249D01*
X73415363Y-72052197D01*
X73516909Y-71997920D01*
X73627109Y-71964491D01*
X73747840Y-71952600D01*
X77661560Y-71952600D01*
X77782291Y-71964491D01*
X77782291Y-71964491D01*
G37*
G36*
X123090491Y-68911091D02*
X123200691Y-68944520D01*
X123302237Y-68998797D01*
X123391251Y-69071849D01*
X123464303Y-69160863D01*
X123518580Y-69262409D01*
X123552009Y-69372609D01*
X123563900Y-69493340D01*
X123563900Y-73407060D01*
X123552009Y-73527791D01*
X123518580Y-73637991D01*
X123464303Y-73739537D01*
X123391251Y-73828551D01*
X123302237Y-73901603D01*
X123200691Y-73955880D01*
X123090491Y-73989309D01*
X122969760Y-74001200D01*
X121556040Y-74001200D01*
X121435309Y-73989309D01*
X121325109Y-73955880D01*
X121223563Y-73901603D01*
X121134549Y-73828551D01*
X121061497Y-73739537D01*
X121007220Y-73637991D01*
X120973791Y-73527791D01*
X120961900Y-73407060D01*
X120961900Y-69493340D01*
X120973791Y-69372609D01*
X121007220Y-69262409D01*
X121061497Y-69160863D01*
X121134549Y-69071849D01*
X121223563Y-68998797D01*
X121325109Y-68944520D01*
X121435309Y-68911091D01*
X121556040Y-68899200D01*
X122969760Y-68899200D01*
X123090491Y-68911091D01*
X123090491Y-68911091D01*
G37*
G36*
X107875891Y-68911091D02*
X107986091Y-68944520D01*
X108087637Y-68998797D01*
X108176651Y-69071849D01*
X108249703Y-69160863D01*
X108303980Y-69262409D01*
X108337409Y-69372609D01*
X108349300Y-69493340D01*
X108349300Y-73407060D01*
X108337409Y-73527791D01*
X108303980Y-73637991D01*
X108249703Y-73739537D01*
X108176651Y-73828551D01*
X108087637Y-73901603D01*
X107986091Y-73955880D01*
X107875891Y-73989309D01*
X107755160Y-74001200D01*
X106341440Y-74001200D01*
X106220709Y-73989309D01*
X106110509Y-73955880D01*
X106008963Y-73901603D01*
X105919949Y-73828551D01*
X105846897Y-73739537D01*
X105792620Y-73637991D01*
X105759191Y-73527791D01*
X105747300Y-73407060D01*
X105747300Y-69493340D01*
X105759191Y-69372609D01*
X105792620Y-69262409D01*
X105846897Y-69160863D01*
X105919949Y-69071849D01*
X106008963Y-68998797D01*
X106110509Y-68944520D01*
X106220709Y-68911091D01*
X106341440Y-68899200D01*
X107755160Y-68899200D01*
X107875891Y-68911091D01*
X107875891Y-68911091D01*
G37*
G36*
X126392491Y-68911091D02*
X126502691Y-68944520D01*
X126604237Y-68998797D01*
X126693251Y-69071849D01*
X126766303Y-69160863D01*
X126820580Y-69262409D01*
X126854009Y-69372609D01*
X126865900Y-69493340D01*
X126865900Y-73407060D01*
X126854009Y-73527791D01*
X126820580Y-73637991D01*
X126766303Y-73739537D01*
X126693251Y-73828551D01*
X126604237Y-73901603D01*
X126502691Y-73955880D01*
X126392491Y-73989309D01*
X126271760Y-74001200D01*
X124858040Y-74001200D01*
X124737309Y-73989309D01*
X124627109Y-73955880D01*
X124525563Y-73901603D01*
X124436549Y-73828551D01*
X124363497Y-73739537D01*
X124309220Y-73637991D01*
X124275791Y-73527791D01*
X124263900Y-73407060D01*
X124263900Y-69493340D01*
X124275791Y-69372609D01*
X124309220Y-69262409D01*
X124363497Y-69160863D01*
X124436549Y-69071849D01*
X124525563Y-68998797D01*
X124627109Y-68944520D01*
X124737309Y-68911091D01*
X124858040Y-68899200D01*
X126271760Y-68899200D01*
X126392491Y-68911091D01*
X126392491Y-68911091D01*
G37*
G36*
X111177891Y-68911091D02*
X111288091Y-68944520D01*
X111389637Y-68998797D01*
X111478651Y-69071849D01*
X111551703Y-69160863D01*
X111605980Y-69262409D01*
X111639409Y-69372609D01*
X111651300Y-69493340D01*
X111651300Y-73407060D01*
X111639409Y-73527791D01*
X111605980Y-73637991D01*
X111551703Y-73739537D01*
X111478651Y-73828551D01*
X111389637Y-73901603D01*
X111288091Y-73955880D01*
X111177891Y-73989309D01*
X111057160Y-74001200D01*
X109643440Y-74001200D01*
X109522709Y-73989309D01*
X109412509Y-73955880D01*
X109310963Y-73901603D01*
X109221949Y-73828551D01*
X109148897Y-73739537D01*
X109094620Y-73637991D01*
X109061191Y-73527791D01*
X109049300Y-73407060D01*
X109049300Y-69493340D01*
X109061191Y-69372609D01*
X109094620Y-69262409D01*
X109148897Y-69160863D01*
X109221949Y-69071849D01*
X109310963Y-68998797D01*
X109412509Y-68944520D01*
X109522709Y-68911091D01*
X109643440Y-68899200D01*
X111057160Y-68899200D01*
X111177891Y-68911091D01*
X111177891Y-68911091D01*
G37*
G36*
X100451228Y-71406603D02*
X100606100Y-71470753D01*
X100745481Y-71563885D01*
X100864015Y-71682419D01*
X100957147Y-71821800D01*
X101021297Y-71976672D01*
X101054000Y-72141084D01*
X101054000Y-72308716D01*
X101021297Y-72473128D01*
X100957147Y-72628000D01*
X100864015Y-72767381D01*
X100745481Y-72885915D01*
X100606100Y-72979047D01*
X100451228Y-73043197D01*
X100286816Y-73075900D01*
X100119184Y-73075900D01*
X99954772Y-73043197D01*
X99799900Y-72979047D01*
X99660519Y-72885915D01*
X99541985Y-72767381D01*
X99448853Y-72628000D01*
X99384703Y-72473128D01*
X99352000Y-72308716D01*
X99352000Y-72141084D01*
X99384703Y-71976672D01*
X99448853Y-71821800D01*
X99541985Y-71682419D01*
X99660519Y-71563885D01*
X99799900Y-71470753D01*
X99954772Y-71406603D01*
X100119184Y-71373900D01*
X100286816Y-71373900D01*
X100451228Y-71406603D01*
X100451228Y-71406603D01*
G37*
G36*
X85211228Y-71406603D02*
X85366100Y-71470753D01*
X85505481Y-71563885D01*
X85624015Y-71682419D01*
X85717147Y-71821800D01*
X85781297Y-71976672D01*
X85814000Y-72141084D01*
X85814000Y-72308716D01*
X85781297Y-72473128D01*
X85717147Y-72628000D01*
X85624015Y-72767381D01*
X85505481Y-72885915D01*
X85366100Y-72979047D01*
X85211228Y-73043197D01*
X85046816Y-73075900D01*
X84879184Y-73075900D01*
X84714772Y-73043197D01*
X84559900Y-72979047D01*
X84420519Y-72885915D01*
X84301985Y-72767381D01*
X84208853Y-72628000D01*
X84144703Y-72473128D01*
X84112000Y-72308716D01*
X84112000Y-72141084D01*
X84144703Y-71976672D01*
X84208853Y-71821800D01*
X84301985Y-71682419D01*
X84420519Y-71563885D01*
X84559900Y-71470753D01*
X84714772Y-71406603D01*
X84879184Y-71373900D01*
X85046816Y-71373900D01*
X85211228Y-71406603D01*
X85211228Y-71406603D01*
G37*
G36*
X77782291Y-68662491D02*
X77892491Y-68695920D01*
X77994037Y-68750197D01*
X78083051Y-68823249D01*
X78156103Y-68912263D01*
X78210380Y-69013809D01*
X78243809Y-69124009D01*
X78255700Y-69244740D01*
X78255700Y-70658460D01*
X78243809Y-70779191D01*
X78210380Y-70889391D01*
X78156103Y-70990937D01*
X78083051Y-71079951D01*
X77994037Y-71153003D01*
X77892491Y-71207280D01*
X77782291Y-71240709D01*
X77661560Y-71252600D01*
X73747840Y-71252600D01*
X73627109Y-71240709D01*
X73516909Y-71207280D01*
X73415363Y-71153003D01*
X73326349Y-71079951D01*
X73253297Y-70990937D01*
X73199020Y-70889391D01*
X73165591Y-70779191D01*
X73153700Y-70658460D01*
X73153700Y-69244740D01*
X73165591Y-69124009D01*
X73199020Y-69013809D01*
X73253297Y-68912263D01*
X73326349Y-68823249D01*
X73415363Y-68750197D01*
X73516909Y-68695920D01*
X73627109Y-68662491D01*
X73747840Y-68650600D01*
X77661560Y-68650600D01*
X77782291Y-68662491D01*
X77782291Y-68662491D01*
G37*
G36*
X64548891Y-68662491D02*
X64659091Y-68695920D01*
X64760637Y-68750197D01*
X64849651Y-68823249D01*
X64922703Y-68912263D01*
X64976980Y-69013809D01*
X65010409Y-69124009D01*
X65022300Y-69244740D01*
X65022300Y-70658460D01*
X65010409Y-70779191D01*
X64976980Y-70889391D01*
X64922703Y-70990937D01*
X64849651Y-71079951D01*
X64760637Y-71153003D01*
X64659091Y-71207280D01*
X64548891Y-71240709D01*
X64428160Y-71252600D01*
X60514440Y-71252600D01*
X60393709Y-71240709D01*
X60283509Y-71207280D01*
X60181963Y-71153003D01*
X60092949Y-71079951D01*
X60019897Y-70990937D01*
X59965620Y-70889391D01*
X59932191Y-70779191D01*
X59920300Y-70658460D01*
X59920300Y-69244740D01*
X59932191Y-69124009D01*
X59965620Y-69013809D01*
X60019897Y-68912263D01*
X60092949Y-68823249D01*
X60181963Y-68750197D01*
X60283509Y-68695920D01*
X60393709Y-68662491D01*
X60514440Y-68650600D01*
X64428160Y-68650600D01*
X64548891Y-68662491D01*
X64548891Y-68662491D01*
G37*
G36*
X100451228Y-68866603D02*
X100606100Y-68930753D01*
X100745481Y-69023885D01*
X100864015Y-69142419D01*
X100957147Y-69281800D01*
X101021297Y-69436672D01*
X101054000Y-69601084D01*
X101054000Y-69768716D01*
X101021297Y-69933128D01*
X100957147Y-70088000D01*
X100864015Y-70227381D01*
X100745481Y-70345915D01*
X100606100Y-70439047D01*
X100451228Y-70503197D01*
X100286816Y-70535900D01*
X100119184Y-70535900D01*
X99954772Y-70503197D01*
X99799900Y-70439047D01*
X99660519Y-70345915D01*
X99541985Y-70227381D01*
X99448853Y-70088000D01*
X99384703Y-69933128D01*
X99352000Y-69768716D01*
X99352000Y-69601084D01*
X99384703Y-69436672D01*
X99448853Y-69281800D01*
X99541985Y-69142419D01*
X99660519Y-69023885D01*
X99799900Y-68930753D01*
X99954772Y-68866603D01*
X100119184Y-68833900D01*
X100286816Y-68833900D01*
X100451228Y-68866603D01*
X100451228Y-68866603D01*
G37*
G36*
X85211228Y-68866603D02*
X85366100Y-68930753D01*
X85505481Y-69023885D01*
X85624015Y-69142419D01*
X85717147Y-69281800D01*
X85781297Y-69436672D01*
X85814000Y-69601084D01*
X85814000Y-69768716D01*
X85781297Y-69933128D01*
X85717147Y-70088000D01*
X85624015Y-70227381D01*
X85505481Y-70345915D01*
X85366100Y-70439047D01*
X85211228Y-70503197D01*
X85046816Y-70535900D01*
X84879184Y-70535900D01*
X84714772Y-70503197D01*
X84559900Y-70439047D01*
X84420519Y-70345915D01*
X84301985Y-70227381D01*
X84208853Y-70088000D01*
X84144703Y-69933128D01*
X84112000Y-69768716D01*
X84112000Y-69601084D01*
X84144703Y-69436672D01*
X84208853Y-69281800D01*
X84301985Y-69142419D01*
X84420519Y-69023885D01*
X84559900Y-68930753D01*
X84714772Y-68866603D01*
X84879184Y-68833900D01*
X85046816Y-68833900D01*
X85211228Y-68866603D01*
X85211228Y-68866603D01*
G37*
G36*
X85211228Y-66326603D02*
X85366100Y-66390753D01*
X85505481Y-66483885D01*
X85624015Y-66602419D01*
X85717147Y-66741800D01*
X85781297Y-66896672D01*
X85814000Y-67061084D01*
X85814000Y-67228716D01*
X85781297Y-67393128D01*
X85717147Y-67548000D01*
X85624015Y-67687381D01*
X85505481Y-67805915D01*
X85366100Y-67899047D01*
X85211228Y-67963197D01*
X85046816Y-67995900D01*
X84879184Y-67995900D01*
X84714772Y-67963197D01*
X84559900Y-67899047D01*
X84420519Y-67805915D01*
X84301985Y-67687381D01*
X84208853Y-67548000D01*
X84144703Y-67393128D01*
X84112000Y-67228716D01*
X84112000Y-67061084D01*
X84144703Y-66896672D01*
X84208853Y-66741800D01*
X84301985Y-66602419D01*
X84420519Y-66483885D01*
X84559900Y-66390753D01*
X84714772Y-66326603D01*
X84879184Y-66293900D01*
X85046816Y-66293900D01*
X85211228Y-66326603D01*
X85211228Y-66326603D01*
G37*
G36*
X100451228Y-66326603D02*
X100606100Y-66390753D01*
X100745481Y-66483885D01*
X100864015Y-66602419D01*
X100957147Y-66741800D01*
X101021297Y-66896672D01*
X101054000Y-67061084D01*
X101054000Y-67228716D01*
X101021297Y-67393128D01*
X100957147Y-67548000D01*
X100864015Y-67687381D01*
X100745481Y-67805915D01*
X100606100Y-67899047D01*
X100451228Y-67963197D01*
X100286816Y-67995900D01*
X100119184Y-67995900D01*
X99954772Y-67963197D01*
X99799900Y-67899047D01*
X99660519Y-67805915D01*
X99541985Y-67687381D01*
X99448853Y-67548000D01*
X99384703Y-67393128D01*
X99352000Y-67228716D01*
X99352000Y-67061084D01*
X99384703Y-66896672D01*
X99448853Y-66741800D01*
X99541985Y-66602419D01*
X99660519Y-66483885D01*
X99799900Y-66390753D01*
X99954772Y-66326603D01*
X100119184Y-66293900D01*
X100286816Y-66293900D01*
X100451228Y-66326603D01*
X100451228Y-66326603D01*
G37*
G36*
X68251891Y-62421391D02*
X68362091Y-62454820D01*
X68463637Y-62509097D01*
X68552651Y-62582149D01*
X68625703Y-62671163D01*
X68679980Y-62772709D01*
X68713409Y-62882909D01*
X68725300Y-63003640D01*
X68725300Y-66917360D01*
X68713409Y-67038091D01*
X68679980Y-67148291D01*
X68625703Y-67249837D01*
X68552651Y-67338851D01*
X68463637Y-67411903D01*
X68362091Y-67466180D01*
X68251891Y-67499609D01*
X68131160Y-67511500D01*
X66717440Y-67511500D01*
X66596709Y-67499609D01*
X66486509Y-67466180D01*
X66384963Y-67411903D01*
X66295949Y-67338851D01*
X66222897Y-67249837D01*
X66168620Y-67148291D01*
X66135191Y-67038091D01*
X66123300Y-66917360D01*
X66123300Y-63003640D01*
X66135191Y-62882909D01*
X66168620Y-62772709D01*
X66222897Y-62671163D01*
X66295949Y-62582149D01*
X66384963Y-62509097D01*
X66486509Y-62454820D01*
X66596709Y-62421391D01*
X66717440Y-62409500D01*
X68131160Y-62409500D01*
X68251891Y-62421391D01*
X68251891Y-62421391D01*
G37*
G36*
X71553891Y-62421391D02*
X71664091Y-62454820D01*
X71765637Y-62509097D01*
X71854651Y-62582149D01*
X71927703Y-62671163D01*
X71981980Y-62772709D01*
X72015409Y-62882909D01*
X72027300Y-63003640D01*
X72027300Y-66917360D01*
X72015409Y-67038091D01*
X71981980Y-67148291D01*
X71927703Y-67249837D01*
X71854651Y-67338851D01*
X71765637Y-67411903D01*
X71664091Y-67466180D01*
X71553891Y-67499609D01*
X71433160Y-67511500D01*
X70019440Y-67511500D01*
X69898709Y-67499609D01*
X69788509Y-67466180D01*
X69686963Y-67411903D01*
X69597949Y-67338851D01*
X69524897Y-67249837D01*
X69470620Y-67148291D01*
X69437191Y-67038091D01*
X69425300Y-66917360D01*
X69425300Y-63003640D01*
X69437191Y-62882909D01*
X69470620Y-62772709D01*
X69524897Y-62671163D01*
X69597949Y-62582149D01*
X69686963Y-62509097D01*
X69788509Y-62454820D01*
X69898709Y-62421391D01*
X70019440Y-62409500D01*
X71433160Y-62409500D01*
X71553891Y-62421391D01*
X71553891Y-62421391D01*
G37*
G36*
X115470491Y-61456191D02*
X115580691Y-61489620D01*
X115682237Y-61543897D01*
X115771251Y-61616949D01*
X115844303Y-61705963D01*
X115898580Y-61807509D01*
X115932009Y-61917709D01*
X115943900Y-62038440D01*
X115943900Y-65952160D01*
X115932009Y-66072891D01*
X115898580Y-66183091D01*
X115844303Y-66284637D01*
X115771251Y-66373651D01*
X115682237Y-66446703D01*
X115580691Y-66500980D01*
X115470491Y-66534409D01*
X115349760Y-66546300D01*
X113936040Y-66546300D01*
X113815309Y-66534409D01*
X113705109Y-66500980D01*
X113603563Y-66446703D01*
X113514549Y-66373651D01*
X113441497Y-66284637D01*
X113387220Y-66183091D01*
X113353791Y-66072891D01*
X113341900Y-65952160D01*
X113341900Y-62038440D01*
X113353791Y-61917709D01*
X113387220Y-61807509D01*
X113441497Y-61705963D01*
X113514549Y-61616949D01*
X113603563Y-61543897D01*
X113705109Y-61489620D01*
X113815309Y-61456191D01*
X113936040Y-61444300D01*
X115349760Y-61444300D01*
X115470491Y-61456191D01*
X115470491Y-61456191D01*
G37*
G36*
X118772491Y-61456191D02*
X118882691Y-61489620D01*
X118984237Y-61543897D01*
X119073251Y-61616949D01*
X119146303Y-61705963D01*
X119200580Y-61807509D01*
X119234009Y-61917709D01*
X119245900Y-62038440D01*
X119245900Y-65952160D01*
X119234009Y-66072891D01*
X119200580Y-66183091D01*
X119146303Y-66284637D01*
X119073251Y-66373651D01*
X118984237Y-66446703D01*
X118882691Y-66500980D01*
X118772491Y-66534409D01*
X118651760Y-66546300D01*
X117238040Y-66546300D01*
X117117309Y-66534409D01*
X117007109Y-66500980D01*
X116905563Y-66446703D01*
X116816549Y-66373651D01*
X116743497Y-66284637D01*
X116689220Y-66183091D01*
X116655791Y-66072891D01*
X116643900Y-65952160D01*
X116643900Y-62038440D01*
X116655791Y-61917709D01*
X116689220Y-61807509D01*
X116743497Y-61705963D01*
X116816549Y-61616949D01*
X116905563Y-61543897D01*
X117007109Y-61489620D01*
X117117309Y-61456191D01*
X117238040Y-61444300D01*
X118651760Y-61444300D01*
X118772491Y-61456191D01*
X118772491Y-61456191D01*
G37*
G36*
X100451228Y-63786603D02*
X100606100Y-63850753D01*
X100745481Y-63943885D01*
X100864015Y-64062419D01*
X100957147Y-64201800D01*
X101021297Y-64356672D01*
X101054000Y-64521084D01*
X101054000Y-64688716D01*
X101021297Y-64853128D01*
X100957147Y-65008000D01*
X100864015Y-65147381D01*
X100745481Y-65265915D01*
X100606100Y-65359047D01*
X100451228Y-65423197D01*
X100286816Y-65455900D01*
X100119184Y-65455900D01*
X99954772Y-65423197D01*
X99799900Y-65359047D01*
X99660519Y-65265915D01*
X99541985Y-65147381D01*
X99448853Y-65008000D01*
X99384703Y-64853128D01*
X99352000Y-64688716D01*
X99352000Y-64521084D01*
X99384703Y-64356672D01*
X99448853Y-64201800D01*
X99541985Y-64062419D01*
X99660519Y-63943885D01*
X99799900Y-63850753D01*
X99954772Y-63786603D01*
X100119184Y-63753900D01*
X100286816Y-63753900D01*
X100451228Y-63786603D01*
X100451228Y-63786603D01*
G37*
G36*
X85211228Y-63786603D02*
X85366100Y-63850753D01*
X85505481Y-63943885D01*
X85624015Y-64062419D01*
X85717147Y-64201800D01*
X85781297Y-64356672D01*
X85814000Y-64521084D01*
X85814000Y-64688716D01*
X85781297Y-64853128D01*
X85717147Y-65008000D01*
X85624015Y-65147381D01*
X85505481Y-65265915D01*
X85366100Y-65359047D01*
X85211228Y-65423197D01*
X85046816Y-65455900D01*
X84879184Y-65455900D01*
X84714772Y-65423197D01*
X84559900Y-65359047D01*
X84420519Y-65265915D01*
X84301985Y-65147381D01*
X84208853Y-65008000D01*
X84144703Y-64853128D01*
X84112000Y-64688716D01*
X84112000Y-64521084D01*
X84144703Y-64356672D01*
X84208853Y-64201800D01*
X84301985Y-64062419D01*
X84420519Y-63943885D01*
X84559900Y-63850753D01*
X84714772Y-63786603D01*
X84879184Y-63753900D01*
X85046816Y-63753900D01*
X85211228Y-63786603D01*
X85211228Y-63786603D01*
G37*
G36*
X100451228Y-61246603D02*
X100606100Y-61310753D01*
X100745481Y-61403885D01*
X100864015Y-61522419D01*
X100957147Y-61661800D01*
X101021297Y-61816672D01*
X101054000Y-61981084D01*
X101054000Y-62148716D01*
X101021297Y-62313128D01*
X100957147Y-62468000D01*
X100864015Y-62607381D01*
X100745481Y-62725915D01*
X100606100Y-62819047D01*
X100451228Y-62883197D01*
X100286816Y-62915900D01*
X100119184Y-62915900D01*
X99954772Y-62883197D01*
X99799900Y-62819047D01*
X99660519Y-62725915D01*
X99541985Y-62607381D01*
X99448853Y-62468000D01*
X99384703Y-62313128D01*
X99352000Y-62148716D01*
X99352000Y-61981084D01*
X99384703Y-61816672D01*
X99448853Y-61661800D01*
X99541985Y-61522419D01*
X99660519Y-61403885D01*
X99799900Y-61310753D01*
X99954772Y-61246603D01*
X100119184Y-61213900D01*
X100286816Y-61213900D01*
X100451228Y-61246603D01*
X100451228Y-61246603D01*
G37*
G36*
X85211228Y-61246603D02*
X85366100Y-61310753D01*
X85505481Y-61403885D01*
X85624015Y-61522419D01*
X85717147Y-61661800D01*
X85781297Y-61816672D01*
X85814000Y-61981084D01*
X85814000Y-62148716D01*
X85781297Y-62313128D01*
X85717147Y-62468000D01*
X85624015Y-62607381D01*
X85505481Y-62725915D01*
X85366100Y-62819047D01*
X85211228Y-62883197D01*
X85046816Y-62915900D01*
X84879184Y-62915900D01*
X84714772Y-62883197D01*
X84559900Y-62819047D01*
X84420519Y-62725915D01*
X84301985Y-62607381D01*
X84208853Y-62468000D01*
X84144703Y-62313128D01*
X84112000Y-62148716D01*
X84112000Y-61981084D01*
X84144703Y-61816672D01*
X84208853Y-61661800D01*
X84301985Y-61522419D01*
X84420519Y-61403885D01*
X84559900Y-61310753D01*
X84714772Y-61246603D01*
X84879184Y-61213900D01*
X85046816Y-61213900D01*
X85211228Y-61246603D01*
X85211228Y-61246603D01*
G37*
G36*
X100451228Y-58706603D02*
X100606100Y-58770753D01*
X100745481Y-58863885D01*
X100864015Y-58982419D01*
X100957147Y-59121800D01*
X101021297Y-59276672D01*
X101054000Y-59441084D01*
X101054000Y-59608716D01*
X101021297Y-59773128D01*
X100957147Y-59928000D01*
X100864015Y-60067381D01*
X100745481Y-60185915D01*
X100606100Y-60279047D01*
X100451228Y-60343197D01*
X100286816Y-60375900D01*
X100119184Y-60375900D01*
X99954772Y-60343197D01*
X99799900Y-60279047D01*
X99660519Y-60185915D01*
X99541985Y-60067381D01*
X99448853Y-59928000D01*
X99384703Y-59773128D01*
X99352000Y-59608716D01*
X99352000Y-59441084D01*
X99384703Y-59276672D01*
X99448853Y-59121800D01*
X99541985Y-58982419D01*
X99660519Y-58863885D01*
X99799900Y-58770753D01*
X99954772Y-58706603D01*
X100119184Y-58673900D01*
X100286816Y-58673900D01*
X100451228Y-58706603D01*
X100451228Y-58706603D01*
G37*
G36*
X85211228Y-58706603D02*
X85366100Y-58770753D01*
X85505481Y-58863885D01*
X85624015Y-58982419D01*
X85717147Y-59121800D01*
X85781297Y-59276672D01*
X85814000Y-59441084D01*
X85814000Y-59608716D01*
X85781297Y-59773128D01*
X85717147Y-59928000D01*
X85624015Y-60067381D01*
X85505481Y-60185915D01*
X85366100Y-60279047D01*
X85211228Y-60343197D01*
X85046816Y-60375900D01*
X84879184Y-60375900D01*
X84714772Y-60343197D01*
X84559900Y-60279047D01*
X84420519Y-60185915D01*
X84301985Y-60067381D01*
X84208853Y-59928000D01*
X84144703Y-59773128D01*
X84112000Y-59608716D01*
X84112000Y-59441084D01*
X84144703Y-59276672D01*
X84208853Y-59121800D01*
X84301985Y-58982419D01*
X84420519Y-58863885D01*
X84559900Y-58770753D01*
X84714772Y-58706603D01*
X84879184Y-58673900D01*
X85046816Y-58673900D01*
X85211228Y-58706603D01*
X85211228Y-58706603D01*
G37*
G36*
X101054000Y-57835900D02*
X99352000Y-57835900D01*
X99352000Y-56133900D01*
X101054000Y-56133900D01*
X101054000Y-57835900D01*
X101054000Y-57835900D01*
G37*
G36*
X85211228Y-56166603D02*
X85366100Y-56230753D01*
X85505481Y-56323885D01*
X85624015Y-56442419D01*
X85717147Y-56581800D01*
X85781297Y-56736672D01*
X85814000Y-56901084D01*
X85814000Y-57068716D01*
X85781297Y-57233128D01*
X85717147Y-57388000D01*
X85624015Y-57527381D01*
X85505481Y-57645915D01*
X85366100Y-57739047D01*
X85211228Y-57803197D01*
X85046816Y-57835900D01*
X84879184Y-57835900D01*
X84714772Y-57803197D01*
X84559900Y-57739047D01*
X84420519Y-57645915D01*
X84301985Y-57527381D01*
X84208853Y-57388000D01*
X84144703Y-57233128D01*
X84112000Y-57068716D01*
X84112000Y-56901084D01*
X84144703Y-56736672D01*
X84208853Y-56581800D01*
X84301985Y-56442419D01*
X84420519Y-56323885D01*
X84559900Y-56230753D01*
X84714772Y-56166603D01*
X84879184Y-56133900D01*
X85046816Y-56133900D01*
X85211228Y-56166603D01*
X85211228Y-56166603D01*
G37*
G36*
X108386431Y-54008511D02*
X108714192Y-54144274D01*
X109009173Y-54341374D01*
X109260026Y-54592227D01*
X109457126Y-54887208D01*
X109592889Y-55214969D01*
X109662100Y-55562916D01*
X109662100Y-55917684D01*
X109592889Y-56265631D01*
X109457126Y-56593392D01*
X109260026Y-56888373D01*
X109009173Y-57139226D01*
X108714192Y-57336326D01*
X108386431Y-57472089D01*
X108038484Y-57541300D01*
X107683716Y-57541300D01*
X107335769Y-57472089D01*
X107008008Y-57336326D01*
X106713027Y-57139226D01*
X106462174Y-56888373D01*
X106265074Y-56593392D01*
X106129311Y-56265631D01*
X106060100Y-55917684D01*
X106060100Y-55562916D01*
X106129311Y-55214969D01*
X106265074Y-54887208D01*
X106462174Y-54592227D01*
X106713027Y-54341374D01*
X107008008Y-54144274D01*
X107335769Y-54008511D01*
X107683716Y-53939300D01*
X108038484Y-53939300D01*
X108386431Y-54008511D01*
X108386431Y-54008511D01*
G37*
G36*
X77830231Y-54008511D02*
X78157992Y-54144274D01*
X78452973Y-54341374D01*
X78703826Y-54592227D01*
X78900926Y-54887208D01*
X79036689Y-55214969D01*
X79105900Y-55562916D01*
X79105900Y-55917684D01*
X79036689Y-56265631D01*
X78900926Y-56593392D01*
X78703826Y-56888373D01*
X78452973Y-57139226D01*
X78157992Y-57336326D01*
X77830231Y-57472089D01*
X77482284Y-57541300D01*
X77127516Y-57541300D01*
X76779569Y-57472089D01*
X76451808Y-57336326D01*
X76156827Y-57139226D01*
X75905974Y-56888373D01*
X75708874Y-56593392D01*
X75573111Y-56265631D01*
X75503900Y-55917684D01*
X75503900Y-55562916D01*
X75573111Y-55214969D01*
X75708874Y-54887208D01*
X75905974Y-54592227D01*
X76156827Y-54341374D01*
X76451808Y-54144274D01*
X76779569Y-54008511D01*
X77127516Y-53939300D01*
X77482284Y-53939300D01*
X77830231Y-54008511D01*
X77830231Y-54008511D01*
G37*
G36*
X123184228Y-53702803D02*
X123339100Y-53766953D01*
X123478481Y-53860085D01*
X123597015Y-53978619D01*
X123690147Y-54118000D01*
X123754297Y-54272872D01*
X123787000Y-54437284D01*
X123787000Y-54604916D01*
X123754297Y-54769328D01*
X123690147Y-54924200D01*
X123597015Y-55063581D01*
X123478481Y-55182115D01*
X123339100Y-55275247D01*
X123184228Y-55339397D01*
X123019816Y-55372100D01*
X122852184Y-55372100D01*
X122687772Y-55339397D01*
X122532900Y-55275247D01*
X122393519Y-55182115D01*
X122274985Y-55063581D01*
X122181853Y-54924200D01*
X122117703Y-54769328D01*
X122085000Y-54604916D01*
X122085000Y-54437284D01*
X122117703Y-54272872D01*
X122181853Y-54118000D01*
X122274985Y-53978619D01*
X122393519Y-53860085D01*
X122532900Y-53766953D01*
X122687772Y-53702803D01*
X122852184Y-53670100D01*
X123019816Y-53670100D01*
X123184228Y-53702803D01*
X123184228Y-53702803D01*
G37*
G36*
X125724228Y-53702803D02*
X125879100Y-53766953D01*
X126018481Y-53860085D01*
X126137015Y-53978619D01*
X126230147Y-54118000D01*
X126294297Y-54272872D01*
X126327000Y-54437284D01*
X126327000Y-54604916D01*
X126294297Y-54769328D01*
X126230147Y-54924200D01*
X126137015Y-55063581D01*
X126018481Y-55182115D01*
X125879100Y-55275247D01*
X125724228Y-55339397D01*
X125559816Y-55372100D01*
X125392184Y-55372100D01*
X125227772Y-55339397D01*
X125072900Y-55275247D01*
X124933519Y-55182115D01*
X124814985Y-55063581D01*
X124721853Y-54924200D01*
X124657703Y-54769328D01*
X124625000Y-54604916D01*
X124625000Y-54437284D01*
X124657703Y-54272872D01*
X124721853Y-54118000D01*
X124814985Y-53978619D01*
X124933519Y-53860085D01*
X125072900Y-53766953D01*
X125227772Y-53702803D01*
X125392184Y-53670100D01*
X125559816Y-53670100D01*
X125724228Y-53702803D01*
X125724228Y-53702803D01*
G37*
G36*
X59938228Y-53702803D02*
X60093100Y-53766953D01*
X60232481Y-53860085D01*
X60351015Y-53978619D01*
X60444147Y-54118000D01*
X60508297Y-54272872D01*
X60541000Y-54437284D01*
X60541000Y-54604916D01*
X60508297Y-54769328D01*
X60444147Y-54924200D01*
X60351015Y-55063581D01*
X60232481Y-55182115D01*
X60093100Y-55275247D01*
X59938228Y-55339397D01*
X59773816Y-55372100D01*
X59606184Y-55372100D01*
X59441772Y-55339397D01*
X59286900Y-55275247D01*
X59147519Y-55182115D01*
X59028985Y-55063581D01*
X58935853Y-54924200D01*
X58871703Y-54769328D01*
X58839000Y-54604916D01*
X58839000Y-54437284D01*
X58871703Y-54272872D01*
X58935853Y-54118000D01*
X59028985Y-53978619D01*
X59147519Y-53860085D01*
X59286900Y-53766953D01*
X59441772Y-53702803D01*
X59606184Y-53670100D01*
X59773816Y-53670100D01*
X59938228Y-53702803D01*
X59938228Y-53702803D01*
G37*
G36*
X62478228Y-53702803D02*
X62633100Y-53766953D01*
X62772481Y-53860085D01*
X62891015Y-53978619D01*
X62984147Y-54118000D01*
X63048297Y-54272872D01*
X63081000Y-54437284D01*
X63081000Y-54604916D01*
X63048297Y-54769328D01*
X62984147Y-54924200D01*
X62891015Y-55063581D01*
X62772481Y-55182115D01*
X62633100Y-55275247D01*
X62478228Y-55339397D01*
X62313816Y-55372100D01*
X62146184Y-55372100D01*
X61981772Y-55339397D01*
X61826900Y-55275247D01*
X61687519Y-55182115D01*
X61568985Y-55063581D01*
X61475853Y-54924200D01*
X61411703Y-54769328D01*
X61379000Y-54604916D01*
X61379000Y-54437284D01*
X61411703Y-54272872D01*
X61475853Y-54118000D01*
X61568985Y-53978619D01*
X61687519Y-53860085D01*
X61826900Y-53766953D01*
X61981772Y-53702803D01*
X62146184Y-53670100D01*
X62313816Y-53670100D01*
X62478228Y-53702803D01*
X62478228Y-53702803D01*
G37*
M02*
