G04 #@! TF.GenerationSoftware,KiCad,Pcbnew,5.0.2+dfsg1-1~bpo9+1*
G04 #@! TF.CreationDate,2019-06-02T18:57:07+01:00*
G04 #@! TF.ProjectId,ds_button_gamepad,64735f62-7574-4746-9f6e-5f67616d6570,rev?*
G04 #@! TF.SameCoordinates,Original*
G04 #@! TF.FileFunction,Legend,Bot*
G04 #@! TF.FilePolarity,Positive*
%FSLAX46Y46*%
G04 Gerber Fmt 4.6, Leading zero omitted, Abs format (unit mm)*
G04 Created by KiCad (PCBNEW 5.0.2+dfsg1-1~bpo9+1) date Sun 02 Jun 2019 18:57:07 BST*
%MOMM*%
%LPD*%
G01*
G04 APERTURE LIST*
%ADD10C,0.300000*%
%ADD11C,0.150000*%
G04 APERTURE END LIST*
D10*
X56190342Y-121606828D02*
X56190342Y-122106828D01*
X55404628Y-122106828D02*
X56904628Y-122106828D01*
X56904628Y-121392542D01*
X55404628Y-120178257D02*
X56190342Y-120178257D01*
X56333200Y-120249685D01*
X56404628Y-120392542D01*
X56404628Y-120678257D01*
X56333200Y-120821114D01*
X55476057Y-120178257D02*
X55404628Y-120321114D01*
X55404628Y-120678257D01*
X55476057Y-120821114D01*
X55618914Y-120892542D01*
X55761771Y-120892542D01*
X55904628Y-120821114D01*
X55976057Y-120678257D01*
X55976057Y-120321114D01*
X56047485Y-120178257D01*
X55476057Y-118821114D02*
X55404628Y-118963971D01*
X55404628Y-119249685D01*
X55476057Y-119392542D01*
X55547485Y-119463971D01*
X55690342Y-119535400D01*
X56118914Y-119535400D01*
X56261771Y-119463971D01*
X56333200Y-119392542D01*
X56404628Y-119249685D01*
X56404628Y-118963971D01*
X56333200Y-118821114D01*
X55476057Y-117606828D02*
X55404628Y-117749685D01*
X55404628Y-118035400D01*
X55476057Y-118178257D01*
X55618914Y-118249685D01*
X56190342Y-118249685D01*
X56333200Y-118178257D01*
X56404628Y-118035400D01*
X56404628Y-117749685D01*
X56333200Y-117606828D01*
X56190342Y-117535400D01*
X56047485Y-117535400D01*
X55904628Y-118249685D01*
X55404628Y-116678257D02*
X55476057Y-116821114D01*
X55618914Y-116892542D01*
X56904628Y-116892542D01*
X55476057Y-115535400D02*
X55404628Y-115678257D01*
X55404628Y-115963971D01*
X55476057Y-116106828D01*
X55618914Y-116178257D01*
X56190342Y-116178257D01*
X56333200Y-116106828D01*
X56404628Y-115963971D01*
X56404628Y-115678257D01*
X56333200Y-115535400D01*
X56190342Y-115463971D01*
X56047485Y-115463971D01*
X55904628Y-116178257D01*
X55476057Y-114892542D02*
X55404628Y-114749685D01*
X55404628Y-114463971D01*
X55476057Y-114321114D01*
X55618914Y-114249685D01*
X55690342Y-114249685D01*
X55833200Y-114321114D01*
X55904628Y-114463971D01*
X55904628Y-114678257D01*
X55976057Y-114821114D01*
X56118914Y-114892542D01*
X56190342Y-114892542D01*
X56333200Y-114821114D01*
X56404628Y-114678257D01*
X56404628Y-114463971D01*
X56333200Y-114321114D01*
X55476057Y-113678257D02*
X55404628Y-113535400D01*
X55404628Y-113249685D01*
X55476057Y-113106828D01*
X55618914Y-113035400D01*
X55690342Y-113035400D01*
X55833200Y-113106828D01*
X55904628Y-113249685D01*
X55904628Y-113463971D01*
X55976057Y-113606828D01*
X56118914Y-113678257D01*
X56190342Y-113678257D01*
X56333200Y-113606828D01*
X56404628Y-113463971D01*
X56404628Y-113249685D01*
X56333200Y-113106828D01*
X56404628Y-112606828D02*
X56404628Y-112035400D01*
X56904628Y-112392542D02*
X55618914Y-112392542D01*
X55476057Y-112321114D01*
X55404628Y-112178257D01*
X55404628Y-112035400D01*
X55476057Y-110963971D02*
X55404628Y-111106828D01*
X55404628Y-111392542D01*
X55476057Y-111535400D01*
X55618914Y-111606828D01*
X56190342Y-111606828D01*
X56333200Y-111535400D01*
X56404628Y-111392542D01*
X56404628Y-111106828D01*
X56333200Y-110963971D01*
X56190342Y-110892542D01*
X56047485Y-110892542D01*
X55904628Y-111606828D01*
X55476057Y-109606828D02*
X55404628Y-109749685D01*
X55404628Y-110035400D01*
X55476057Y-110178257D01*
X55547485Y-110249685D01*
X55690342Y-110321114D01*
X56118914Y-110321114D01*
X56261771Y-110249685D01*
X56333200Y-110178257D01*
X56404628Y-110035400D01*
X56404628Y-109749685D01*
X56333200Y-109606828D01*
X55404628Y-108963971D02*
X56904628Y-108963971D01*
X55404628Y-108321114D02*
X56190342Y-108321114D01*
X56333200Y-108392542D01*
X56404628Y-108535400D01*
X56404628Y-108749685D01*
X56333200Y-108892542D01*
X56261771Y-108963971D01*
X56761771Y-106535400D02*
X56833200Y-106463971D01*
X56904628Y-106321114D01*
X56904628Y-105963971D01*
X56833200Y-105821114D01*
X56761771Y-105749685D01*
X56618914Y-105678257D01*
X56476057Y-105678257D01*
X56261771Y-105749685D01*
X55404628Y-106606828D01*
X55404628Y-105678257D01*
X56904628Y-104749685D02*
X56904628Y-104606828D01*
X56833200Y-104463971D01*
X56761771Y-104392542D01*
X56618914Y-104321114D01*
X56333200Y-104249685D01*
X55976057Y-104249685D01*
X55690342Y-104321114D01*
X55547485Y-104392542D01*
X55476057Y-104463971D01*
X55404628Y-104606828D01*
X55404628Y-104749685D01*
X55476057Y-104892542D01*
X55547485Y-104963971D01*
X55690342Y-105035400D01*
X55976057Y-105106828D01*
X56333200Y-105106828D01*
X56618914Y-105035400D01*
X56761771Y-104963971D01*
X56833200Y-104892542D01*
X56904628Y-104749685D01*
X55404628Y-102821114D02*
X55404628Y-103678257D01*
X55404628Y-103249685D02*
X56904628Y-103249685D01*
X56690342Y-103392542D01*
X56547485Y-103535400D01*
X56476057Y-103678257D01*
X55404628Y-102106828D02*
X55404628Y-101821114D01*
X55476057Y-101678257D01*
X55547485Y-101606828D01*
X55761771Y-101463971D01*
X56047485Y-101392542D01*
X56618914Y-101392542D01*
X56761771Y-101463971D01*
X56833200Y-101535400D01*
X56904628Y-101678257D01*
X56904628Y-101963971D01*
X56833200Y-102106828D01*
X56761771Y-102178257D01*
X56618914Y-102249685D01*
X56261771Y-102249685D01*
X56118914Y-102178257D01*
X56047485Y-102106828D01*
X55976057Y-101963971D01*
X55976057Y-101678257D01*
X56047485Y-101535400D01*
X56118914Y-101463971D01*
X56261771Y-101392542D01*
X93618857Y-60968371D02*
X93618857Y-60468371D01*
X94404571Y-60468371D02*
X92904571Y-60468371D01*
X92904571Y-61182657D01*
X94404571Y-62396942D02*
X93618857Y-62396942D01*
X93476000Y-62325514D01*
X93404571Y-62182657D01*
X93404571Y-61896942D01*
X93476000Y-61754085D01*
X94333142Y-62396942D02*
X94404571Y-62254085D01*
X94404571Y-61896942D01*
X94333142Y-61754085D01*
X94190285Y-61682657D01*
X94047428Y-61682657D01*
X93904571Y-61754085D01*
X93833142Y-61896942D01*
X93833142Y-62254085D01*
X93761714Y-62396942D01*
X94333142Y-63754085D02*
X94404571Y-63611228D01*
X94404571Y-63325514D01*
X94333142Y-63182657D01*
X94261714Y-63111228D01*
X94118857Y-63039800D01*
X93690285Y-63039800D01*
X93547428Y-63111228D01*
X93476000Y-63182657D01*
X93404571Y-63325514D01*
X93404571Y-63611228D01*
X93476000Y-63754085D01*
X94333142Y-64968371D02*
X94404571Y-64825514D01*
X94404571Y-64539800D01*
X94333142Y-64396942D01*
X94190285Y-64325514D01*
X93618857Y-64325514D01*
X93476000Y-64396942D01*
X93404571Y-64539800D01*
X93404571Y-64825514D01*
X93476000Y-64968371D01*
X93618857Y-65039800D01*
X93761714Y-65039800D01*
X93904571Y-64325514D01*
X94404571Y-65896942D02*
X94333142Y-65754085D01*
X94190285Y-65682657D01*
X92904571Y-65682657D01*
X94333142Y-67039800D02*
X94404571Y-66896942D01*
X94404571Y-66611228D01*
X94333142Y-66468371D01*
X94190285Y-66396942D01*
X93618857Y-66396942D01*
X93476000Y-66468371D01*
X93404571Y-66611228D01*
X93404571Y-66896942D01*
X93476000Y-67039800D01*
X93618857Y-67111228D01*
X93761714Y-67111228D01*
X93904571Y-66396942D01*
X94333142Y-67682657D02*
X94404571Y-67825514D01*
X94404571Y-68111228D01*
X94333142Y-68254085D01*
X94190285Y-68325514D01*
X94118857Y-68325514D01*
X93976000Y-68254085D01*
X93904571Y-68111228D01*
X93904571Y-67896942D01*
X93833142Y-67754085D01*
X93690285Y-67682657D01*
X93618857Y-67682657D01*
X93476000Y-67754085D01*
X93404571Y-67896942D01*
X93404571Y-68111228D01*
X93476000Y-68254085D01*
X94333142Y-68896942D02*
X94404571Y-69039800D01*
X94404571Y-69325514D01*
X94333142Y-69468371D01*
X94190285Y-69539800D01*
X94118857Y-69539800D01*
X93976000Y-69468371D01*
X93904571Y-69325514D01*
X93904571Y-69111228D01*
X93833142Y-68968371D01*
X93690285Y-68896942D01*
X93618857Y-68896942D01*
X93476000Y-68968371D01*
X93404571Y-69111228D01*
X93404571Y-69325514D01*
X93476000Y-69468371D01*
X93404571Y-69968371D02*
X93404571Y-70539800D01*
X92904571Y-70182657D02*
X94190285Y-70182657D01*
X94333142Y-70254085D01*
X94404571Y-70396942D01*
X94404571Y-70539800D01*
X94333142Y-71611228D02*
X94404571Y-71468371D01*
X94404571Y-71182657D01*
X94333142Y-71039800D01*
X94190285Y-70968371D01*
X93618857Y-70968371D01*
X93476000Y-71039800D01*
X93404571Y-71182657D01*
X93404571Y-71468371D01*
X93476000Y-71611228D01*
X93618857Y-71682657D01*
X93761714Y-71682657D01*
X93904571Y-70968371D01*
X94333142Y-72968371D02*
X94404571Y-72825514D01*
X94404571Y-72539800D01*
X94333142Y-72396942D01*
X94261714Y-72325514D01*
X94118857Y-72254085D01*
X93690285Y-72254085D01*
X93547428Y-72325514D01*
X93476000Y-72396942D01*
X93404571Y-72539800D01*
X93404571Y-72825514D01*
X93476000Y-72968371D01*
X94404571Y-73611228D02*
X92904571Y-73611228D01*
X94404571Y-74254085D02*
X93618857Y-74254085D01*
X93476000Y-74182657D01*
X93404571Y-74039800D01*
X93404571Y-73825514D01*
X93476000Y-73682657D01*
X93547428Y-73611228D01*
X93047428Y-76039800D02*
X92976000Y-76111228D01*
X92904571Y-76254085D01*
X92904571Y-76611228D01*
X92976000Y-76754085D01*
X93047428Y-76825514D01*
X93190285Y-76896942D01*
X93333142Y-76896942D01*
X93547428Y-76825514D01*
X94404571Y-75968371D01*
X94404571Y-76896942D01*
X92904571Y-77825514D02*
X92904571Y-77968371D01*
X92976000Y-78111228D01*
X93047428Y-78182657D01*
X93190285Y-78254085D01*
X93476000Y-78325514D01*
X93833142Y-78325514D01*
X94118857Y-78254085D01*
X94261714Y-78182657D01*
X94333142Y-78111228D01*
X94404571Y-77968371D01*
X94404571Y-77825514D01*
X94333142Y-77682657D01*
X94261714Y-77611228D01*
X94118857Y-77539800D01*
X93833142Y-77468371D01*
X93476000Y-77468371D01*
X93190285Y-77539800D01*
X93047428Y-77611228D01*
X92976000Y-77682657D01*
X92904571Y-77825514D01*
X94404571Y-79754085D02*
X94404571Y-78896942D01*
X94404571Y-79325514D02*
X92904571Y-79325514D01*
X93118857Y-79182657D01*
X93261714Y-79039800D01*
X93333142Y-78896942D01*
X94404571Y-80468371D02*
X94404571Y-80754085D01*
X94333142Y-80896942D01*
X94261714Y-80968371D01*
X94047428Y-81111228D01*
X93761714Y-81182657D01*
X93190285Y-81182657D01*
X93047428Y-81111228D01*
X92976000Y-81039800D01*
X92904571Y-80896942D01*
X92904571Y-80611228D01*
X92976000Y-80468371D01*
X93047428Y-80396942D01*
X93190285Y-80325514D01*
X93547428Y-80325514D01*
X93690285Y-80396942D01*
X93761714Y-80468371D01*
X93833142Y-80611228D01*
X93833142Y-80896942D01*
X93761714Y-81039800D01*
X93690285Y-81111228D01*
X93547428Y-81182657D01*
X88345271Y-62440657D02*
X88345271Y-63440657D01*
X89845271Y-62440657D01*
X89845271Y-63440657D01*
X89773842Y-64583514D02*
X89845271Y-64440657D01*
X89845271Y-64154942D01*
X89773842Y-64012085D01*
X89630985Y-63940657D01*
X89059557Y-63940657D01*
X88916700Y-64012085D01*
X88845271Y-64154942D01*
X88845271Y-64440657D01*
X88916700Y-64583514D01*
X89059557Y-64654942D01*
X89202414Y-64654942D01*
X89345271Y-63940657D01*
X89845271Y-65297800D02*
X88845271Y-65297800D01*
X89130985Y-65297800D02*
X88988128Y-65369228D01*
X88916700Y-65440657D01*
X88845271Y-65583514D01*
X88845271Y-65726371D01*
X89845271Y-66440657D02*
X89773842Y-66297800D01*
X89702414Y-66226371D01*
X89559557Y-66154942D01*
X89130985Y-66154942D01*
X88988128Y-66226371D01*
X88916700Y-66297800D01*
X88845271Y-66440657D01*
X88845271Y-66654942D01*
X88916700Y-66797800D01*
X88988128Y-66869228D01*
X89130985Y-66940657D01*
X89559557Y-66940657D01*
X89702414Y-66869228D01*
X89773842Y-66797800D01*
X89845271Y-66654942D01*
X89845271Y-66440657D01*
X89988128Y-67226371D02*
X89988128Y-68369228D01*
X89773842Y-69369228D02*
X89845271Y-69226371D01*
X89845271Y-68940657D01*
X89773842Y-68797800D01*
X89702414Y-68726371D01*
X89559557Y-68654942D01*
X89130985Y-68654942D01*
X88988128Y-68726371D01*
X88916700Y-68797800D01*
X88845271Y-68940657D01*
X88845271Y-69226371D01*
X88916700Y-69369228D01*
X89845271Y-70226371D02*
X89773842Y-70083514D01*
X89702414Y-70012085D01*
X89559557Y-69940657D01*
X89130985Y-69940657D01*
X88988128Y-70012085D01*
X88916700Y-70083514D01*
X88845271Y-70226371D01*
X88845271Y-70440657D01*
X88916700Y-70583514D01*
X88988128Y-70654942D01*
X89130985Y-70726371D01*
X89559557Y-70726371D01*
X89702414Y-70654942D01*
X89773842Y-70583514D01*
X89845271Y-70440657D01*
X89845271Y-70226371D01*
X88845271Y-71369228D02*
X89845271Y-71369228D01*
X88988128Y-71369228D02*
X88916700Y-71440657D01*
X88845271Y-71583514D01*
X88845271Y-71797800D01*
X88916700Y-71940657D01*
X89059557Y-72012085D01*
X89845271Y-72012085D01*
X88845271Y-72512085D02*
X88845271Y-73083514D01*
X88345271Y-72726371D02*
X89630985Y-72726371D01*
X89773842Y-72797800D01*
X89845271Y-72940657D01*
X89845271Y-73083514D01*
X89845271Y-73583514D02*
X88845271Y-73583514D01*
X89130985Y-73583514D02*
X88988128Y-73654942D01*
X88916700Y-73726371D01*
X88845271Y-73869228D01*
X88845271Y-74012085D01*
X89845271Y-74726371D02*
X89773842Y-74583514D01*
X89702414Y-74512085D01*
X89559557Y-74440657D01*
X89130985Y-74440657D01*
X88988128Y-74512085D01*
X88916700Y-74583514D01*
X88845271Y-74726371D01*
X88845271Y-74940657D01*
X88916700Y-75083514D01*
X88988128Y-75154942D01*
X89130985Y-75226371D01*
X89559557Y-75226371D01*
X89702414Y-75154942D01*
X89773842Y-75083514D01*
X89845271Y-74940657D01*
X89845271Y-74726371D01*
X89845271Y-76083514D02*
X89773842Y-75940657D01*
X89630985Y-75869228D01*
X88345271Y-75869228D01*
X89988128Y-76297800D02*
X89988128Y-77440657D01*
X89845271Y-77797800D02*
X88345271Y-77797800D01*
X88345271Y-78154942D01*
X88416700Y-78369228D01*
X88559557Y-78512085D01*
X88702414Y-78583514D01*
X88988128Y-78654942D01*
X89202414Y-78654942D01*
X89488128Y-78583514D01*
X89630985Y-78512085D01*
X89773842Y-78369228D01*
X89845271Y-78154942D01*
X89845271Y-77797800D01*
X89773842Y-79226371D02*
X89845271Y-79440657D01*
X89845271Y-79797800D01*
X89773842Y-79940657D01*
X89702414Y-80012085D01*
X89559557Y-80083514D01*
X89416700Y-80083514D01*
X89273842Y-80012085D01*
X89202414Y-79940657D01*
X89130985Y-79797800D01*
X89059557Y-79512085D01*
X88988128Y-79369228D01*
X88916700Y-79297800D01*
X88773842Y-79226371D01*
X88630985Y-79226371D01*
X88488128Y-79297800D01*
X88416700Y-79369228D01*
X88345271Y-79512085D01*
X88345271Y-79869228D01*
X88416700Y-80083514D01*
D11*
G04 #@! TO.C,U1*
X101473000Y-55714900D02*
X101473000Y-86194900D01*
X101473000Y-55714900D02*
X96393000Y-55714900D01*
X96393000Y-55714900D02*
X96393000Y-53174900D01*
X96393000Y-53174900D02*
X88773000Y-53174900D01*
X88773000Y-53174900D02*
X88773000Y-55714900D01*
X88773000Y-55714900D02*
X83693000Y-55714900D01*
X83693000Y-55714900D02*
X83693000Y-86194900D01*
X83693000Y-86194900D02*
X101473000Y-86194900D01*
G04 #@! TD*
M02*
