G04 #@! TF.GenerationSoftware,KiCad,Pcbnew,5.0.2+dfsg1-1~bpo9+1*
G04 #@! TF.CreationDate,2019-06-02T18:57:07+01:00*
G04 #@! TF.ProjectId,ds_button_gamepad,64735f62-7574-4746-9f6e-5f67616d6570,rev?*
G04 #@! TF.SameCoordinates,Original*
G04 #@! TF.FileFunction,Profile,NP*
%FSLAX46Y46*%
G04 Gerber Fmt 4.6, Leading zero omitted, Abs format (unit mm)*
G04 Created by KiCad (PCBNEW 5.0.2+dfsg1-1~bpo9+1) date Sun 02 Jun 2019 18:57:07 BST*
%MOMM*%
%LPD*%
G01*
G04 APERTURE LIST*
%ADD10C,0.150000*%
%ADD11C,0.200000*%
G04 APERTURE END LIST*
D10*
X131445000Y-130835400D02*
G75*
G02X130175000Y-132105400I-1270000J0D01*
G01*
X54724300Y-132105400D02*
G75*
G02X53441600Y-130822700I0J1282700D01*
G01*
D11*
X127571500Y-114604800D02*
G75*
G03X127571500Y-114604800I-3810000J0D01*
G01*
D10*
X130175000Y-132105400D02*
X54724300Y-132105400D01*
X72263000Y-111391700D02*
X78765400Y-111391700D01*
X72250300Y-104902000D02*
X72250300Y-111391700D01*
X65595500Y-111391700D02*
X65595500Y-104889300D01*
X65595500Y-104889300D02*
X72250300Y-104889300D01*
X65595500Y-111391700D02*
X59093100Y-111391700D01*
X65595500Y-118059200D02*
X59093100Y-118059200D01*
X65595500Y-118059200D02*
X65595500Y-124561600D01*
X72263000Y-118059200D02*
X72263000Y-124561600D01*
X53441600Y-97002600D02*
G75*
G02X54711600Y-95732600I1270000J0D01*
G01*
X54711600Y-95732600D02*
X130187700Y-95732600D01*
D11*
X119976900Y-122224800D02*
G75*
G03X119976900Y-122224800I-3810000J0D01*
G01*
X119976900Y-107022900D02*
G75*
G03X119976900Y-107022900I-3810000J0D01*
G01*
X112369600Y-114604800D02*
G75*
G03X112369600Y-114604800I-3810000J0D01*
G01*
D10*
X53441600Y-130822700D02*
X53441600Y-96989900D01*
X130175000Y-95732600D02*
G75*
G02X131445000Y-97002600I0J-1270000D01*
G01*
X59093100Y-118059200D02*
X59093100Y-111404400D01*
X78765400Y-111391700D02*
X78765400Y-118059200D01*
X65570100Y-124523500D02*
X72237600Y-124523500D01*
X72263000Y-118059200D02*
X78765400Y-118059200D01*
X131445000Y-97002600D02*
X131445000Y-130822700D01*
X54851300Y-52590700D02*
X130327400Y-52590700D01*
X53581300Y-87680800D02*
X53581300Y-53848000D01*
X130314700Y-88963500D02*
X54864000Y-88963500D01*
X131584700Y-53860700D02*
X131584700Y-87680800D01*
X130314700Y-52590700D02*
G75*
G02X131584700Y-53860700I0J-1270000D01*
G01*
X131584700Y-87693500D02*
G75*
G02X130314700Y-88963500I-1270000J0D01*
G01*
X54864000Y-88963500D02*
G75*
G02X53581300Y-87680800I0J1282700D01*
G01*
X53581300Y-53860700D02*
G75*
G02X54851300Y-52590700I1270000J0D01*
G01*
M02*
