G04 #@! TF.GenerationSoftware,KiCad,Pcbnew,5.0.2+dfsg1-1~bpo9+1*
G04 #@! TF.CreationDate,2019-06-02T18:57:07+01:00*
G04 #@! TF.ProjectId,ds_button_gamepad,64735f62-7574-4746-9f6e-5f67616d6570,rev?*
G04 #@! TF.SameCoordinates,Original*
G04 #@! TF.FileFunction,Legend,Top*
G04 #@! TF.FilePolarity,Positive*
%FSLAX46Y46*%
G04 Gerber Fmt 4.6, Leading zero omitted, Abs format (unit mm)*
G04 Created by KiCad (PCBNEW 5.0.2+dfsg1-1~bpo9+1) date Sun 02 Jun 2019 18:57:07 BST*
%MOMM*%
%LPD*%
G01*
G04 APERTURE LIST*
%ADD10C,0.250000*%
%ADD11C,0.300000*%
%ADD12C,0.200000*%
%ADD13C,0.150000*%
G04 APERTURE END LIST*
D10*
X66340290Y-115228642D02*
X66292671Y-115276261D01*
X66149814Y-115323880D01*
X66054576Y-115323880D01*
X65911719Y-115276261D01*
X65816480Y-115181023D01*
X65768861Y-115085785D01*
X65721242Y-114895309D01*
X65721242Y-114752452D01*
X65768861Y-114561976D01*
X65816480Y-114466738D01*
X65911719Y-114371500D01*
X66054576Y-114323880D01*
X66149814Y-114323880D01*
X66292671Y-114371500D01*
X66340290Y-114419119D01*
X66768861Y-114323880D02*
X66768861Y-115133404D01*
X66816480Y-115228642D01*
X66864100Y-115276261D01*
X66959338Y-115323880D01*
X67149814Y-115323880D01*
X67245052Y-115276261D01*
X67292671Y-115228642D01*
X67340290Y-115133404D01*
X67340290Y-114323880D01*
X67673623Y-114323880D02*
X68245052Y-114323880D01*
X67959338Y-115323880D02*
X67959338Y-114323880D01*
X68768861Y-114323880D02*
X68959338Y-114323880D01*
X69054576Y-114371500D01*
X69149814Y-114466738D01*
X69197433Y-114657214D01*
X69197433Y-114990547D01*
X69149814Y-115181023D01*
X69054576Y-115276261D01*
X68959338Y-115323880D01*
X68768861Y-115323880D01*
X68673623Y-115276261D01*
X68578385Y-115181023D01*
X68530766Y-114990547D01*
X68530766Y-114657214D01*
X68578385Y-114466738D01*
X68673623Y-114371500D01*
X68768861Y-114323880D01*
X69626004Y-114323880D02*
X69626004Y-115133404D01*
X69673623Y-115228642D01*
X69721242Y-115276261D01*
X69816480Y-115323880D01*
X70006957Y-115323880D01*
X70102195Y-115276261D01*
X70149814Y-115228642D01*
X70197433Y-115133404D01*
X70197433Y-114323880D01*
X70530766Y-114323880D02*
X71102195Y-114323880D01*
X70816480Y-115323880D02*
X70816480Y-114323880D01*
X114016090Y-122632742D02*
X113968471Y-122680361D01*
X113825614Y-122727980D01*
X113730376Y-122727980D01*
X113587519Y-122680361D01*
X113492280Y-122585123D01*
X113444661Y-122489885D01*
X113397042Y-122299409D01*
X113397042Y-122156552D01*
X113444661Y-121966076D01*
X113492280Y-121870838D01*
X113587519Y-121775600D01*
X113730376Y-121727980D01*
X113825614Y-121727980D01*
X113968471Y-121775600D01*
X114016090Y-121823219D01*
X114444661Y-121727980D02*
X114444661Y-122537504D01*
X114492280Y-122632742D01*
X114539900Y-122680361D01*
X114635138Y-122727980D01*
X114825614Y-122727980D01*
X114920852Y-122680361D01*
X114968471Y-122632742D01*
X115016090Y-122537504D01*
X115016090Y-121727980D01*
X115349423Y-121727980D02*
X115920852Y-121727980D01*
X115635138Y-122727980D02*
X115635138Y-121727980D01*
X116444661Y-121727980D02*
X116635138Y-121727980D01*
X116730376Y-121775600D01*
X116825614Y-121870838D01*
X116873233Y-122061314D01*
X116873233Y-122394647D01*
X116825614Y-122585123D01*
X116730376Y-122680361D01*
X116635138Y-122727980D01*
X116444661Y-122727980D01*
X116349423Y-122680361D01*
X116254185Y-122585123D01*
X116206566Y-122394647D01*
X116206566Y-122061314D01*
X116254185Y-121870838D01*
X116349423Y-121775600D01*
X116444661Y-121727980D01*
X117301804Y-121727980D02*
X117301804Y-122537504D01*
X117349423Y-122632742D01*
X117397042Y-122680361D01*
X117492280Y-122727980D01*
X117682757Y-122727980D01*
X117777995Y-122680361D01*
X117825614Y-122632742D01*
X117873233Y-122537504D01*
X117873233Y-121727980D01*
X118206566Y-121727980D02*
X118777995Y-121727980D01*
X118492280Y-122727980D02*
X118492280Y-121727980D01*
X106332590Y-114873042D02*
X106284971Y-114920661D01*
X106142114Y-114968280D01*
X106046876Y-114968280D01*
X105904019Y-114920661D01*
X105808780Y-114825423D01*
X105761161Y-114730185D01*
X105713542Y-114539709D01*
X105713542Y-114396852D01*
X105761161Y-114206376D01*
X105808780Y-114111138D01*
X105904019Y-114015900D01*
X106046876Y-113968280D01*
X106142114Y-113968280D01*
X106284971Y-114015900D01*
X106332590Y-114063519D01*
X106761161Y-113968280D02*
X106761161Y-114777804D01*
X106808780Y-114873042D01*
X106856400Y-114920661D01*
X106951638Y-114968280D01*
X107142114Y-114968280D01*
X107237352Y-114920661D01*
X107284971Y-114873042D01*
X107332590Y-114777804D01*
X107332590Y-113968280D01*
X107665923Y-113968280D02*
X108237352Y-113968280D01*
X107951638Y-114968280D02*
X107951638Y-113968280D01*
X108761161Y-113968280D02*
X108951638Y-113968280D01*
X109046876Y-114015900D01*
X109142114Y-114111138D01*
X109189733Y-114301614D01*
X109189733Y-114634947D01*
X109142114Y-114825423D01*
X109046876Y-114920661D01*
X108951638Y-114968280D01*
X108761161Y-114968280D01*
X108665923Y-114920661D01*
X108570685Y-114825423D01*
X108523066Y-114634947D01*
X108523066Y-114301614D01*
X108570685Y-114111138D01*
X108665923Y-114015900D01*
X108761161Y-113968280D01*
X109618304Y-113968280D02*
X109618304Y-114777804D01*
X109665923Y-114873042D01*
X109713542Y-114920661D01*
X109808780Y-114968280D01*
X109999257Y-114968280D01*
X110094495Y-114920661D01*
X110142114Y-114873042D01*
X110189733Y-114777804D01*
X110189733Y-113968280D01*
X110523066Y-113968280D02*
X111094495Y-113968280D01*
X110808780Y-114968280D02*
X110808780Y-113968280D01*
X113863690Y-107189542D02*
X113816071Y-107237161D01*
X113673214Y-107284780D01*
X113577976Y-107284780D01*
X113435119Y-107237161D01*
X113339880Y-107141923D01*
X113292261Y-107046685D01*
X113244642Y-106856209D01*
X113244642Y-106713352D01*
X113292261Y-106522876D01*
X113339880Y-106427638D01*
X113435119Y-106332400D01*
X113577976Y-106284780D01*
X113673214Y-106284780D01*
X113816071Y-106332400D01*
X113863690Y-106380019D01*
X114292261Y-106284780D02*
X114292261Y-107094304D01*
X114339880Y-107189542D01*
X114387500Y-107237161D01*
X114482738Y-107284780D01*
X114673214Y-107284780D01*
X114768452Y-107237161D01*
X114816071Y-107189542D01*
X114863690Y-107094304D01*
X114863690Y-106284780D01*
X115197023Y-106284780D02*
X115768452Y-106284780D01*
X115482738Y-107284780D02*
X115482738Y-106284780D01*
X116292261Y-106284780D02*
X116482738Y-106284780D01*
X116577976Y-106332400D01*
X116673214Y-106427638D01*
X116720833Y-106618114D01*
X116720833Y-106951447D01*
X116673214Y-107141923D01*
X116577976Y-107237161D01*
X116482738Y-107284780D01*
X116292261Y-107284780D01*
X116197023Y-107237161D01*
X116101785Y-107141923D01*
X116054166Y-106951447D01*
X116054166Y-106618114D01*
X116101785Y-106427638D01*
X116197023Y-106332400D01*
X116292261Y-106284780D01*
X117149404Y-106284780D02*
X117149404Y-107094304D01*
X117197023Y-107189542D01*
X117244642Y-107237161D01*
X117339880Y-107284780D01*
X117530357Y-107284780D01*
X117625595Y-107237161D01*
X117673214Y-107189542D01*
X117720833Y-107094304D01*
X117720833Y-106284780D01*
X118054166Y-106284780D02*
X118625595Y-106284780D01*
X118339880Y-107284780D02*
X118339880Y-106284780D01*
X121928190Y-114949242D02*
X121880571Y-114996861D01*
X121737714Y-115044480D01*
X121642476Y-115044480D01*
X121499619Y-114996861D01*
X121404380Y-114901623D01*
X121356761Y-114806385D01*
X121309142Y-114615909D01*
X121309142Y-114473052D01*
X121356761Y-114282576D01*
X121404380Y-114187338D01*
X121499619Y-114092100D01*
X121642476Y-114044480D01*
X121737714Y-114044480D01*
X121880571Y-114092100D01*
X121928190Y-114139719D01*
X122356761Y-114044480D02*
X122356761Y-114854004D01*
X122404380Y-114949242D01*
X122452000Y-114996861D01*
X122547238Y-115044480D01*
X122737714Y-115044480D01*
X122832952Y-114996861D01*
X122880571Y-114949242D01*
X122928190Y-114854004D01*
X122928190Y-114044480D01*
X123261523Y-114044480D02*
X123832952Y-114044480D01*
X123547238Y-115044480D02*
X123547238Y-114044480D01*
X124356761Y-114044480D02*
X124547238Y-114044480D01*
X124642476Y-114092100D01*
X124737714Y-114187338D01*
X124785333Y-114377814D01*
X124785333Y-114711147D01*
X124737714Y-114901623D01*
X124642476Y-114996861D01*
X124547238Y-115044480D01*
X124356761Y-115044480D01*
X124261523Y-114996861D01*
X124166285Y-114901623D01*
X124118666Y-114711147D01*
X124118666Y-114377814D01*
X124166285Y-114187338D01*
X124261523Y-114092100D01*
X124356761Y-114044480D01*
X125213904Y-114044480D02*
X125213904Y-114854004D01*
X125261523Y-114949242D01*
X125309142Y-114996861D01*
X125404380Y-115044480D01*
X125594857Y-115044480D01*
X125690095Y-114996861D01*
X125737714Y-114949242D01*
X125785333Y-114854004D01*
X125785333Y-114044480D01*
X126118666Y-114044480D02*
X126690095Y-114044480D01*
X126404380Y-115044480D02*
X126404380Y-114044480D01*
D11*
X83117171Y-101061057D02*
X82617171Y-101061057D01*
X82617171Y-101846771D02*
X82617171Y-100346771D01*
X83331457Y-100346771D01*
X84545742Y-101846771D02*
X84545742Y-101061057D01*
X84474314Y-100918200D01*
X84331457Y-100846771D01*
X84045742Y-100846771D01*
X83902885Y-100918200D01*
X84545742Y-101775342D02*
X84402885Y-101846771D01*
X84045742Y-101846771D01*
X83902885Y-101775342D01*
X83831457Y-101632485D01*
X83831457Y-101489628D01*
X83902885Y-101346771D01*
X84045742Y-101275342D01*
X84402885Y-101275342D01*
X84545742Y-101203914D01*
X85902885Y-101775342D02*
X85760028Y-101846771D01*
X85474314Y-101846771D01*
X85331457Y-101775342D01*
X85260028Y-101703914D01*
X85188600Y-101561057D01*
X85188600Y-101132485D01*
X85260028Y-100989628D01*
X85331457Y-100918200D01*
X85474314Y-100846771D01*
X85760028Y-100846771D01*
X85902885Y-100918200D01*
X87117171Y-101775342D02*
X86974314Y-101846771D01*
X86688600Y-101846771D01*
X86545742Y-101775342D01*
X86474314Y-101632485D01*
X86474314Y-101061057D01*
X86545742Y-100918200D01*
X86688600Y-100846771D01*
X86974314Y-100846771D01*
X87117171Y-100918200D01*
X87188600Y-101061057D01*
X87188600Y-101203914D01*
X86474314Y-101346771D01*
X88045742Y-101846771D02*
X87902885Y-101775342D01*
X87831457Y-101632485D01*
X87831457Y-100346771D01*
X89188600Y-101775342D02*
X89045742Y-101846771D01*
X88760028Y-101846771D01*
X88617171Y-101775342D01*
X88545742Y-101632485D01*
X88545742Y-101061057D01*
X88617171Y-100918200D01*
X88760028Y-100846771D01*
X89045742Y-100846771D01*
X89188600Y-100918200D01*
X89260028Y-101061057D01*
X89260028Y-101203914D01*
X88545742Y-101346771D01*
X89831457Y-101775342D02*
X89974314Y-101846771D01*
X90260028Y-101846771D01*
X90402885Y-101775342D01*
X90474314Y-101632485D01*
X90474314Y-101561057D01*
X90402885Y-101418200D01*
X90260028Y-101346771D01*
X90045742Y-101346771D01*
X89902885Y-101275342D01*
X89831457Y-101132485D01*
X89831457Y-101061057D01*
X89902885Y-100918200D01*
X90045742Y-100846771D01*
X90260028Y-100846771D01*
X90402885Y-100918200D01*
X91045742Y-101775342D02*
X91188600Y-101846771D01*
X91474314Y-101846771D01*
X91617171Y-101775342D01*
X91688600Y-101632485D01*
X91688600Y-101561057D01*
X91617171Y-101418200D01*
X91474314Y-101346771D01*
X91260028Y-101346771D01*
X91117171Y-101275342D01*
X91045742Y-101132485D01*
X91045742Y-101061057D01*
X91117171Y-100918200D01*
X91260028Y-100846771D01*
X91474314Y-100846771D01*
X91617171Y-100918200D01*
X92117171Y-100846771D02*
X92688600Y-100846771D01*
X92331457Y-100346771D02*
X92331457Y-101632485D01*
X92402885Y-101775342D01*
X92545742Y-101846771D01*
X92688600Y-101846771D01*
X93760028Y-101775342D02*
X93617171Y-101846771D01*
X93331457Y-101846771D01*
X93188600Y-101775342D01*
X93117171Y-101632485D01*
X93117171Y-101061057D01*
X93188600Y-100918200D01*
X93331457Y-100846771D01*
X93617171Y-100846771D01*
X93760028Y-100918200D01*
X93831457Y-101061057D01*
X93831457Y-101203914D01*
X93117171Y-101346771D01*
X95117171Y-101775342D02*
X94974314Y-101846771D01*
X94688600Y-101846771D01*
X94545742Y-101775342D01*
X94474314Y-101703914D01*
X94402885Y-101561057D01*
X94402885Y-101132485D01*
X94474314Y-100989628D01*
X94545742Y-100918200D01*
X94688600Y-100846771D01*
X94974314Y-100846771D01*
X95117171Y-100918200D01*
X95760028Y-101846771D02*
X95760028Y-100346771D01*
X96402885Y-101846771D02*
X96402885Y-101061057D01*
X96331457Y-100918200D01*
X96188600Y-100846771D01*
X95974314Y-100846771D01*
X95831457Y-100918200D01*
X95760028Y-100989628D01*
X98188599Y-100489628D02*
X98260028Y-100418200D01*
X98402885Y-100346771D01*
X98760028Y-100346771D01*
X98902885Y-100418200D01*
X98974314Y-100489628D01*
X99045742Y-100632485D01*
X99045742Y-100775342D01*
X98974314Y-100989628D01*
X98117171Y-101846771D01*
X99045742Y-101846771D01*
X99974314Y-100346771D02*
X100117171Y-100346771D01*
X100260028Y-100418200D01*
X100331457Y-100489628D01*
X100402885Y-100632485D01*
X100474314Y-100918200D01*
X100474314Y-101275342D01*
X100402885Y-101561057D01*
X100331457Y-101703914D01*
X100260028Y-101775342D01*
X100117171Y-101846771D01*
X99974314Y-101846771D01*
X99831457Y-101775342D01*
X99760028Y-101703914D01*
X99688600Y-101561057D01*
X99617171Y-101275342D01*
X99617171Y-100918200D01*
X99688600Y-100632485D01*
X99760028Y-100489628D01*
X99831457Y-100418200D01*
X99974314Y-100346771D01*
X101902885Y-101846771D02*
X101045742Y-101846771D01*
X101474314Y-101846771D02*
X101474314Y-100346771D01*
X101331457Y-100561057D01*
X101188600Y-100703914D01*
X101045742Y-100775342D01*
X102617171Y-101846771D02*
X102902885Y-101846771D01*
X103045742Y-101775342D01*
X103117171Y-101703914D01*
X103260028Y-101489628D01*
X103331457Y-101203914D01*
X103331457Y-100632485D01*
X103260028Y-100489628D01*
X103188600Y-100418200D01*
X103045742Y-100346771D01*
X102760028Y-100346771D01*
X102617171Y-100418200D01*
X102545742Y-100489628D01*
X102474314Y-100632485D01*
X102474314Y-100989628D01*
X102545742Y-101132485D01*
X102617171Y-101203914D01*
X102760028Y-101275342D01*
X103045742Y-101275342D01*
X103188600Y-101203914D01*
X103260028Y-101132485D01*
X103331457Y-100989628D01*
X93618857Y-80674728D02*
X93618857Y-81174728D01*
X94404571Y-81174728D02*
X92904571Y-81174728D01*
X92904571Y-80460442D01*
X94404571Y-79246157D02*
X93618857Y-79246157D01*
X93476000Y-79317585D01*
X93404571Y-79460442D01*
X93404571Y-79746157D01*
X93476000Y-79889014D01*
X94333142Y-79246157D02*
X94404571Y-79389014D01*
X94404571Y-79746157D01*
X94333142Y-79889014D01*
X94190285Y-79960442D01*
X94047428Y-79960442D01*
X93904571Y-79889014D01*
X93833142Y-79746157D01*
X93833142Y-79389014D01*
X93761714Y-79246157D01*
X94333142Y-77889014D02*
X94404571Y-78031871D01*
X94404571Y-78317585D01*
X94333142Y-78460442D01*
X94261714Y-78531871D01*
X94118857Y-78603300D01*
X93690285Y-78603300D01*
X93547428Y-78531871D01*
X93476000Y-78460442D01*
X93404571Y-78317585D01*
X93404571Y-78031871D01*
X93476000Y-77889014D01*
X94333142Y-76674728D02*
X94404571Y-76817585D01*
X94404571Y-77103300D01*
X94333142Y-77246157D01*
X94190285Y-77317585D01*
X93618857Y-77317585D01*
X93476000Y-77246157D01*
X93404571Y-77103300D01*
X93404571Y-76817585D01*
X93476000Y-76674728D01*
X93618857Y-76603300D01*
X93761714Y-76603300D01*
X93904571Y-77317585D01*
X94404571Y-75746157D02*
X94333142Y-75889014D01*
X94190285Y-75960442D01*
X92904571Y-75960442D01*
X94333142Y-74603300D02*
X94404571Y-74746157D01*
X94404571Y-75031871D01*
X94333142Y-75174728D01*
X94190285Y-75246157D01*
X93618857Y-75246157D01*
X93476000Y-75174728D01*
X93404571Y-75031871D01*
X93404571Y-74746157D01*
X93476000Y-74603300D01*
X93618857Y-74531871D01*
X93761714Y-74531871D01*
X93904571Y-75246157D01*
X94333142Y-73960442D02*
X94404571Y-73817585D01*
X94404571Y-73531871D01*
X94333142Y-73389014D01*
X94190285Y-73317585D01*
X94118857Y-73317585D01*
X93976000Y-73389014D01*
X93904571Y-73531871D01*
X93904571Y-73746157D01*
X93833142Y-73889014D01*
X93690285Y-73960442D01*
X93618857Y-73960442D01*
X93476000Y-73889014D01*
X93404571Y-73746157D01*
X93404571Y-73531871D01*
X93476000Y-73389014D01*
X94333142Y-72746157D02*
X94404571Y-72603300D01*
X94404571Y-72317585D01*
X94333142Y-72174728D01*
X94190285Y-72103300D01*
X94118857Y-72103300D01*
X93976000Y-72174728D01*
X93904571Y-72317585D01*
X93904571Y-72531871D01*
X93833142Y-72674728D01*
X93690285Y-72746157D01*
X93618857Y-72746157D01*
X93476000Y-72674728D01*
X93404571Y-72531871D01*
X93404571Y-72317585D01*
X93476000Y-72174728D01*
X93404571Y-71674728D02*
X93404571Y-71103300D01*
X92904571Y-71460442D02*
X94190285Y-71460442D01*
X94333142Y-71389014D01*
X94404571Y-71246157D01*
X94404571Y-71103300D01*
X94333142Y-70031871D02*
X94404571Y-70174728D01*
X94404571Y-70460442D01*
X94333142Y-70603300D01*
X94190285Y-70674728D01*
X93618857Y-70674728D01*
X93476000Y-70603300D01*
X93404571Y-70460442D01*
X93404571Y-70174728D01*
X93476000Y-70031871D01*
X93618857Y-69960442D01*
X93761714Y-69960442D01*
X93904571Y-70674728D01*
X94333142Y-68674728D02*
X94404571Y-68817585D01*
X94404571Y-69103300D01*
X94333142Y-69246157D01*
X94261714Y-69317585D01*
X94118857Y-69389014D01*
X93690285Y-69389014D01*
X93547428Y-69317585D01*
X93476000Y-69246157D01*
X93404571Y-69103300D01*
X93404571Y-68817585D01*
X93476000Y-68674728D01*
X94404571Y-68031871D02*
X92904571Y-68031871D01*
X94404571Y-67389014D02*
X93618857Y-67389014D01*
X93476000Y-67460442D01*
X93404571Y-67603300D01*
X93404571Y-67817585D01*
X93476000Y-67960442D01*
X93547428Y-68031871D01*
X93047428Y-65603300D02*
X92976000Y-65531871D01*
X92904571Y-65389014D01*
X92904571Y-65031871D01*
X92976000Y-64889014D01*
X93047428Y-64817585D01*
X93190285Y-64746157D01*
X93333142Y-64746157D01*
X93547428Y-64817585D01*
X94404571Y-65674728D01*
X94404571Y-64746157D01*
X92904571Y-63817585D02*
X92904571Y-63674728D01*
X92976000Y-63531871D01*
X93047428Y-63460442D01*
X93190285Y-63389014D01*
X93476000Y-63317585D01*
X93833142Y-63317585D01*
X94118857Y-63389014D01*
X94261714Y-63460442D01*
X94333142Y-63531871D01*
X94404571Y-63674728D01*
X94404571Y-63817585D01*
X94333142Y-63960442D01*
X94261714Y-64031871D01*
X94118857Y-64103300D01*
X93833142Y-64174728D01*
X93476000Y-64174728D01*
X93190285Y-64103300D01*
X93047428Y-64031871D01*
X92976000Y-63960442D01*
X92904571Y-63817585D01*
X94404571Y-61889014D02*
X94404571Y-62746157D01*
X94404571Y-62317585D02*
X92904571Y-62317585D01*
X93118857Y-62460442D01*
X93261714Y-62603300D01*
X93333142Y-62746157D01*
X94404571Y-61174728D02*
X94404571Y-60889014D01*
X94333142Y-60746157D01*
X94261714Y-60674728D01*
X94047428Y-60531871D01*
X93761714Y-60460442D01*
X93190285Y-60460442D01*
X93047428Y-60531871D01*
X92976000Y-60603300D01*
X92904571Y-60746157D01*
X92904571Y-61031871D01*
X92976000Y-61174728D01*
X93047428Y-61246157D01*
X93190285Y-61317585D01*
X93547428Y-61317585D01*
X93690285Y-61246157D01*
X93761714Y-61174728D01*
X93833142Y-61031871D01*
X93833142Y-60746157D01*
X93761714Y-60603300D01*
X93690285Y-60531871D01*
X93547428Y-60460442D01*
X88345271Y-80027942D02*
X88345271Y-79027942D01*
X89845271Y-80027942D01*
X89845271Y-79027942D01*
X89773842Y-77885085D02*
X89845271Y-78027942D01*
X89845271Y-78313657D01*
X89773842Y-78456514D01*
X89630985Y-78527942D01*
X89059557Y-78527942D01*
X88916700Y-78456514D01*
X88845271Y-78313657D01*
X88845271Y-78027942D01*
X88916700Y-77885085D01*
X89059557Y-77813657D01*
X89202414Y-77813657D01*
X89345271Y-78527942D01*
X89845271Y-77170800D02*
X88845271Y-77170800D01*
X89130985Y-77170800D02*
X88988128Y-77099371D01*
X88916700Y-77027942D01*
X88845271Y-76885085D01*
X88845271Y-76742228D01*
X89845271Y-76027942D02*
X89773842Y-76170800D01*
X89702414Y-76242228D01*
X89559557Y-76313657D01*
X89130985Y-76313657D01*
X88988128Y-76242228D01*
X88916700Y-76170800D01*
X88845271Y-76027942D01*
X88845271Y-75813657D01*
X88916700Y-75670800D01*
X88988128Y-75599371D01*
X89130985Y-75527942D01*
X89559557Y-75527942D01*
X89702414Y-75599371D01*
X89773842Y-75670800D01*
X89845271Y-75813657D01*
X89845271Y-76027942D01*
X89988128Y-75242228D02*
X89988128Y-74099371D01*
X89773842Y-73099371D02*
X89845271Y-73242228D01*
X89845271Y-73527942D01*
X89773842Y-73670800D01*
X89702414Y-73742228D01*
X89559557Y-73813657D01*
X89130985Y-73813657D01*
X88988128Y-73742228D01*
X88916700Y-73670800D01*
X88845271Y-73527942D01*
X88845271Y-73242228D01*
X88916700Y-73099371D01*
X89845271Y-72242228D02*
X89773842Y-72385085D01*
X89702414Y-72456514D01*
X89559557Y-72527942D01*
X89130985Y-72527942D01*
X88988128Y-72456514D01*
X88916700Y-72385085D01*
X88845271Y-72242228D01*
X88845271Y-72027942D01*
X88916700Y-71885085D01*
X88988128Y-71813657D01*
X89130985Y-71742228D01*
X89559557Y-71742228D01*
X89702414Y-71813657D01*
X89773842Y-71885085D01*
X89845271Y-72027942D01*
X89845271Y-72242228D01*
X88845271Y-71099371D02*
X89845271Y-71099371D01*
X88988128Y-71099371D02*
X88916700Y-71027942D01*
X88845271Y-70885085D01*
X88845271Y-70670800D01*
X88916700Y-70527942D01*
X89059557Y-70456514D01*
X89845271Y-70456514D01*
X88845271Y-69956514D02*
X88845271Y-69385085D01*
X88345271Y-69742228D02*
X89630985Y-69742228D01*
X89773842Y-69670800D01*
X89845271Y-69527942D01*
X89845271Y-69385085D01*
X89845271Y-68885085D02*
X88845271Y-68885085D01*
X89130985Y-68885085D02*
X88988128Y-68813657D01*
X88916700Y-68742228D01*
X88845271Y-68599371D01*
X88845271Y-68456514D01*
X89845271Y-67742228D02*
X89773842Y-67885085D01*
X89702414Y-67956514D01*
X89559557Y-68027942D01*
X89130985Y-68027942D01*
X88988128Y-67956514D01*
X88916700Y-67885085D01*
X88845271Y-67742228D01*
X88845271Y-67527942D01*
X88916700Y-67385085D01*
X88988128Y-67313657D01*
X89130985Y-67242228D01*
X89559557Y-67242228D01*
X89702414Y-67313657D01*
X89773842Y-67385085D01*
X89845271Y-67527942D01*
X89845271Y-67742228D01*
X89845271Y-66385085D02*
X89773842Y-66527942D01*
X89630985Y-66599371D01*
X88345271Y-66599371D01*
X89988128Y-66170800D02*
X89988128Y-65027942D01*
X89845271Y-64670800D02*
X88345271Y-64670800D01*
X88345271Y-64313657D01*
X88416700Y-64099371D01*
X88559557Y-63956514D01*
X88702414Y-63885085D01*
X88988128Y-63813657D01*
X89202414Y-63813657D01*
X89488128Y-63885085D01*
X89630985Y-63956514D01*
X89773842Y-64099371D01*
X89845271Y-64313657D01*
X89845271Y-64670800D01*
X89773842Y-63242228D02*
X89845271Y-63027942D01*
X89845271Y-62670800D01*
X89773842Y-62527942D01*
X89702414Y-62456514D01*
X89559557Y-62385085D01*
X89416700Y-62385085D01*
X89273842Y-62456514D01*
X89202414Y-62527942D01*
X89130985Y-62670800D01*
X89059557Y-62956514D01*
X88988128Y-63099371D01*
X88916700Y-63170800D01*
X88773842Y-63242228D01*
X88630985Y-63242228D01*
X88488128Y-63170800D01*
X88416700Y-63099371D01*
X88345271Y-62956514D01*
X88345271Y-62599371D01*
X88416700Y-62385085D01*
X83890957Y-97870271D02*
X84890957Y-97870271D01*
X83890957Y-99370271D01*
X84890957Y-99370271D01*
X86033814Y-99298842D02*
X85890957Y-99370271D01*
X85605242Y-99370271D01*
X85462385Y-99298842D01*
X85390957Y-99155985D01*
X85390957Y-98584557D01*
X85462385Y-98441700D01*
X85605242Y-98370271D01*
X85890957Y-98370271D01*
X86033814Y-98441700D01*
X86105242Y-98584557D01*
X86105242Y-98727414D01*
X85390957Y-98870271D01*
X86748100Y-99370271D02*
X86748100Y-98370271D01*
X86748100Y-98655985D02*
X86819528Y-98513128D01*
X86890957Y-98441700D01*
X87033814Y-98370271D01*
X87176671Y-98370271D01*
X87890957Y-99370271D02*
X87748100Y-99298842D01*
X87676671Y-99227414D01*
X87605242Y-99084557D01*
X87605242Y-98655985D01*
X87676671Y-98513128D01*
X87748100Y-98441700D01*
X87890957Y-98370271D01*
X88105242Y-98370271D01*
X88248100Y-98441700D01*
X88319528Y-98513128D01*
X88390957Y-98655985D01*
X88390957Y-99084557D01*
X88319528Y-99227414D01*
X88248100Y-99298842D01*
X88105242Y-99370271D01*
X87890957Y-99370271D01*
X88676671Y-99513128D02*
X89819528Y-99513128D01*
X90819528Y-99298842D02*
X90676671Y-99370271D01*
X90390957Y-99370271D01*
X90248100Y-99298842D01*
X90176671Y-99227414D01*
X90105242Y-99084557D01*
X90105242Y-98655985D01*
X90176671Y-98513128D01*
X90248100Y-98441700D01*
X90390957Y-98370271D01*
X90676671Y-98370271D01*
X90819528Y-98441700D01*
X91676671Y-99370271D02*
X91533814Y-99298842D01*
X91462385Y-99227414D01*
X91390957Y-99084557D01*
X91390957Y-98655985D01*
X91462385Y-98513128D01*
X91533814Y-98441700D01*
X91676671Y-98370271D01*
X91890957Y-98370271D01*
X92033814Y-98441700D01*
X92105242Y-98513128D01*
X92176671Y-98655985D01*
X92176671Y-99084557D01*
X92105242Y-99227414D01*
X92033814Y-99298842D01*
X91890957Y-99370271D01*
X91676671Y-99370271D01*
X92819528Y-98370271D02*
X92819528Y-99370271D01*
X92819528Y-98513128D02*
X92890957Y-98441700D01*
X93033814Y-98370271D01*
X93248100Y-98370271D01*
X93390957Y-98441700D01*
X93462385Y-98584557D01*
X93462385Y-99370271D01*
X93962385Y-98370271D02*
X94533814Y-98370271D01*
X94176671Y-97870271D02*
X94176671Y-99155985D01*
X94248100Y-99298842D01*
X94390957Y-99370271D01*
X94533814Y-99370271D01*
X95033814Y-99370271D02*
X95033814Y-98370271D01*
X95033814Y-98655985D02*
X95105242Y-98513128D01*
X95176671Y-98441700D01*
X95319528Y-98370271D01*
X95462385Y-98370271D01*
X96176671Y-99370271D02*
X96033814Y-99298842D01*
X95962385Y-99227414D01*
X95890957Y-99084557D01*
X95890957Y-98655985D01*
X95962385Y-98513128D01*
X96033814Y-98441700D01*
X96176671Y-98370271D01*
X96390957Y-98370271D01*
X96533814Y-98441700D01*
X96605242Y-98513128D01*
X96676671Y-98655985D01*
X96676671Y-99084557D01*
X96605242Y-99227414D01*
X96533814Y-99298842D01*
X96390957Y-99370271D01*
X96176671Y-99370271D01*
X97533814Y-99370271D02*
X97390957Y-99298842D01*
X97319528Y-99155985D01*
X97319528Y-97870271D01*
X97748100Y-99513128D02*
X98890957Y-99513128D01*
X99248100Y-99370271D02*
X99248100Y-97870271D01*
X99605242Y-97870271D01*
X99819528Y-97941700D01*
X99962385Y-98084557D01*
X100033814Y-98227414D01*
X100105242Y-98513128D01*
X100105242Y-98727414D01*
X100033814Y-99013128D01*
X99962385Y-99155985D01*
X99819528Y-99298842D01*
X99605242Y-99370271D01*
X99248100Y-99370271D01*
X100676671Y-99298842D02*
X100890957Y-99370271D01*
X101248100Y-99370271D01*
X101390957Y-99298842D01*
X101462385Y-99227414D01*
X101533814Y-99084557D01*
X101533814Y-98941700D01*
X101462385Y-98798842D01*
X101390957Y-98727414D01*
X101248100Y-98655985D01*
X100962385Y-98584557D01*
X100819528Y-98513128D01*
X100748100Y-98441700D01*
X100676671Y-98298842D01*
X100676671Y-98155985D01*
X100748100Y-98013128D01*
X100819528Y-97941700D01*
X100962385Y-97870271D01*
X101319528Y-97870271D01*
X101533814Y-97941700D01*
X124530585Y-98913071D02*
X124030585Y-98198785D01*
X123673442Y-98913071D02*
X123673442Y-97413071D01*
X124244871Y-97413071D01*
X124387728Y-97484500D01*
X124459157Y-97555928D01*
X124530585Y-97698785D01*
X124530585Y-97913071D01*
X124459157Y-98055928D01*
X124387728Y-98127357D01*
X124244871Y-98198785D01*
X123673442Y-98198785D01*
X61284585Y-98913071D02*
X60570300Y-98913071D01*
X60570300Y-97413071D01*
X108559600Y-109031885D02*
X108559600Y-109746171D01*
X108059600Y-108246171D02*
X108559600Y-109031885D01*
X109059600Y-108246171D01*
X115666900Y-100664271D02*
X116666900Y-102164271D01*
X116666900Y-100664271D02*
X115666900Y-102164271D01*
X116274042Y-116580457D02*
X116488328Y-116651885D01*
X116559757Y-116723314D01*
X116631185Y-116866171D01*
X116631185Y-117080457D01*
X116559757Y-117223314D01*
X116488328Y-117294742D01*
X116345471Y-117366171D01*
X115774042Y-117366171D01*
X115774042Y-115866171D01*
X116274042Y-115866171D01*
X116416900Y-115937600D01*
X116488328Y-116009028D01*
X116559757Y-116151885D01*
X116559757Y-116294742D01*
X116488328Y-116437600D01*
X116416900Y-116509028D01*
X116274042Y-116580457D01*
X115774042Y-116580457D01*
X123404357Y-109317600D02*
X124118642Y-109317600D01*
X123261500Y-109746171D02*
X123761500Y-108246171D01*
X124261500Y-109746171D01*
X73389728Y-130134442D02*
X73604014Y-130205871D01*
X73961157Y-130205871D01*
X74104014Y-130134442D01*
X74175442Y-130063014D01*
X74246871Y-129920157D01*
X74246871Y-129777300D01*
X74175442Y-129634442D01*
X74104014Y-129563014D01*
X73961157Y-129491585D01*
X73675442Y-129420157D01*
X73532585Y-129348728D01*
X73461157Y-129277300D01*
X73389728Y-129134442D01*
X73389728Y-128991585D01*
X73461157Y-128848728D01*
X73532585Y-128777300D01*
X73675442Y-128705871D01*
X74032585Y-128705871D01*
X74246871Y-128777300D01*
X75461157Y-130134442D02*
X75318300Y-130205871D01*
X75032585Y-130205871D01*
X74889728Y-130134442D01*
X74818300Y-129991585D01*
X74818300Y-129420157D01*
X74889728Y-129277300D01*
X75032585Y-129205871D01*
X75318300Y-129205871D01*
X75461157Y-129277300D01*
X75532585Y-129420157D01*
X75532585Y-129563014D01*
X74818300Y-129705871D01*
X76389728Y-130205871D02*
X76246871Y-130134442D01*
X76175442Y-129991585D01*
X76175442Y-128705871D01*
X77532585Y-130134442D02*
X77389728Y-130205871D01*
X77104014Y-130205871D01*
X76961157Y-130134442D01*
X76889728Y-129991585D01*
X76889728Y-129420157D01*
X76961157Y-129277300D01*
X77104014Y-129205871D01*
X77389728Y-129205871D01*
X77532585Y-129277300D01*
X77604014Y-129420157D01*
X77604014Y-129563014D01*
X76889728Y-129705871D01*
X78889728Y-130134442D02*
X78746871Y-130205871D01*
X78461157Y-130205871D01*
X78318300Y-130134442D01*
X78246871Y-130063014D01*
X78175442Y-129920157D01*
X78175442Y-129491585D01*
X78246871Y-129348728D01*
X78318300Y-129277300D01*
X78461157Y-129205871D01*
X78746871Y-129205871D01*
X78889728Y-129277300D01*
X79318300Y-129205871D02*
X79889728Y-129205871D01*
X79532585Y-128705871D02*
X79532585Y-129991585D01*
X79604014Y-130134442D01*
X79746871Y-130205871D01*
X79889728Y-130205871D01*
X105877028Y-130134442D02*
X106091314Y-130205871D01*
X106448457Y-130205871D01*
X106591314Y-130134442D01*
X106662742Y-130063014D01*
X106734171Y-129920157D01*
X106734171Y-129777300D01*
X106662742Y-129634442D01*
X106591314Y-129563014D01*
X106448457Y-129491585D01*
X106162742Y-129420157D01*
X106019885Y-129348728D01*
X105948457Y-129277300D01*
X105877028Y-129134442D01*
X105877028Y-128991585D01*
X105948457Y-128848728D01*
X106019885Y-128777300D01*
X106162742Y-128705871D01*
X106519885Y-128705871D01*
X106734171Y-128777300D01*
X107162742Y-129205871D02*
X107734171Y-129205871D01*
X107377028Y-128705871D02*
X107377028Y-129991585D01*
X107448457Y-130134442D01*
X107591314Y-130205871D01*
X107734171Y-130205871D01*
X108877028Y-130205871D02*
X108877028Y-129420157D01*
X108805600Y-129277300D01*
X108662742Y-129205871D01*
X108377028Y-129205871D01*
X108234171Y-129277300D01*
X108877028Y-130134442D02*
X108734171Y-130205871D01*
X108377028Y-130205871D01*
X108234171Y-130134442D01*
X108162742Y-129991585D01*
X108162742Y-129848728D01*
X108234171Y-129705871D01*
X108377028Y-129634442D01*
X108734171Y-129634442D01*
X108877028Y-129563014D01*
X109591314Y-130205871D02*
X109591314Y-129205871D01*
X109591314Y-129491585D02*
X109662742Y-129348728D01*
X109734171Y-129277300D01*
X109877028Y-129205871D01*
X110019885Y-129205871D01*
X110305600Y-129205871D02*
X110877028Y-129205871D01*
X110519885Y-128705871D02*
X110519885Y-129991585D01*
X110591314Y-130134442D01*
X110734171Y-130205871D01*
X110877028Y-130205871D01*
D12*
X129857792Y-71462900D02*
G75*
G03X129857792Y-71462900I-13551192J0D01*
G01*
D13*
X81510157Y-71577200D02*
G75*
G03X81510157Y-71577200I-12434857J0D01*
G01*
G04 #@! TO.C,U3*
X131307469Y-128955800D02*
G75*
G03X131307469Y-128955800I-3012069J0D01*
G01*
G04 #@! TO.C,U5*
X59603269Y-128943100D02*
G75*
G03X59603269Y-128943100I-3012069J0D01*
G01*
G04 #@! TO.C,U4*
X80177269Y-98882200D02*
G75*
G03X80177269Y-98882200I-3012069J0D01*
G01*
G04 #@! TO.C,U2*
X110733469Y-98882200D02*
G75*
G03X110733469Y-98882200I-3012069J0D01*
G01*
G04 #@! TO.C,SW9*
X76733400Y-85623400D02*
X72224900Y-85623400D01*
X72224900Y-85623400D02*
X72224900Y-94640400D01*
X72224900Y-94640400D02*
X81241900Y-94640400D01*
X81241900Y-94640400D02*
X81241900Y-85623400D01*
X81241900Y-85623400D02*
X76733400Y-85623400D01*
X76733400Y-88163400D02*
X81241900Y-88163400D01*
X76733400Y-88163400D02*
X72224900Y-88163400D01*
X74193400Y-86893400D02*
X74193400Y-85623400D01*
X74193400Y-86893400D02*
X74193400Y-88163400D01*
X79273400Y-86893400D02*
X79273400Y-88163400D01*
X79273400Y-88163400D02*
X79273400Y-85623400D01*
G04 #@! TO.C,SW10*
X60960000Y-55791100D02*
X65468500Y-55791100D01*
X65468500Y-55791100D02*
X65468500Y-46774100D01*
X65468500Y-46774100D02*
X56451500Y-46774100D01*
X56451500Y-46774100D02*
X56451500Y-55791100D01*
X56451500Y-55791100D02*
X60960000Y-55791100D01*
X60960000Y-53251100D02*
X56451500Y-53251100D01*
X60960000Y-53251100D02*
X65468500Y-53251100D01*
X63500000Y-54521100D02*
X63500000Y-55791100D01*
X63500000Y-54521100D02*
X63500000Y-53251100D01*
X58420000Y-54521100D02*
X58420000Y-53251100D01*
X58420000Y-53251100D02*
X58420000Y-55791100D01*
G04 #@! TO.C,SW11*
X110985300Y-88163400D02*
X110985300Y-85623400D01*
X110985300Y-86893400D02*
X110985300Y-88163400D01*
X105905300Y-86893400D02*
X105905300Y-88163400D01*
X105905300Y-86893400D02*
X105905300Y-85623400D01*
X108445300Y-88163400D02*
X103936800Y-88163400D01*
X108445300Y-88163400D02*
X112953800Y-88163400D01*
X112953800Y-85623400D02*
X108445300Y-85623400D01*
X112953800Y-94640400D02*
X112953800Y-85623400D01*
X103936800Y-94640400D02*
X112953800Y-94640400D01*
X103936800Y-85623400D02*
X103936800Y-94640400D01*
X108445300Y-85623400D02*
X103936800Y-85623400D01*
G04 #@! TO.C,SW12*
X121666000Y-53251100D02*
X121666000Y-55791100D01*
X121666000Y-54521100D02*
X121666000Y-53251100D01*
X126746000Y-54521100D02*
X126746000Y-53251100D01*
X126746000Y-54521100D02*
X126746000Y-55791100D01*
X124206000Y-53251100D02*
X128714500Y-53251100D01*
X124206000Y-53251100D02*
X119697500Y-53251100D01*
X119697500Y-55791100D02*
X124206000Y-55791100D01*
X119697500Y-46774100D02*
X119697500Y-55791100D01*
X128714500Y-46774100D02*
X119697500Y-46774100D01*
X128714500Y-55791100D02*
X128714500Y-46774100D01*
X124206000Y-55791100D02*
X128714500Y-55791100D01*
G04 #@! TO.C,U1*
X83693000Y-86194900D02*
X101473000Y-86194900D01*
X101473000Y-86194900D02*
X101473000Y-55714900D01*
X101473000Y-55714900D02*
X96393000Y-55714900D01*
X96393000Y-55714900D02*
X96393000Y-53174900D01*
X96393000Y-53174900D02*
X88773000Y-53174900D01*
X88773000Y-53174900D02*
X88773000Y-55714900D01*
X88773000Y-55714900D02*
X83693000Y-55714900D01*
X83693000Y-55714900D02*
X83693000Y-86194900D01*
G04 #@! TO.C,U2*
X110873169Y-55740300D02*
G75*
G03X110873169Y-55740300I-3012069J0D01*
G01*
G04 #@! TO.C,U3*
X131447169Y-85813900D02*
G75*
G03X131447169Y-85813900I-3012069J0D01*
G01*
G04 #@! TO.C,U4*
X80316969Y-55740300D02*
G75*
G03X80316969Y-55740300I-3012069J0D01*
G01*
G04 #@! TO.C,U5*
X59742969Y-85801200D02*
G75*
G03X59742969Y-85801200I-3012069J0D01*
G01*
X55968995Y-88174580D02*
X55968995Y-88984104D01*
X56016614Y-89079342D01*
X56064233Y-89126961D01*
X56159471Y-89174580D01*
X56349947Y-89174580D01*
X56445185Y-89126961D01*
X56492804Y-89079342D01*
X56540423Y-88984104D01*
X56540423Y-88174580D01*
X57492804Y-88174580D02*
X57016614Y-88174580D01*
X56968995Y-88650771D01*
X57016614Y-88603152D01*
X57111852Y-88555533D01*
X57349947Y-88555533D01*
X57445185Y-88603152D01*
X57492804Y-88650771D01*
X57540423Y-88746009D01*
X57540423Y-88984104D01*
X57492804Y-89079342D01*
X57445185Y-89126961D01*
X57349947Y-89174580D01*
X57111852Y-89174580D01*
X57016614Y-89126961D01*
X56968995Y-89079342D01*
G04 #@! TD*
M02*
